<?xml version="1.0" encoding="UTF-8" standalone="no"?>
<svg viewBox="0 0 84 84" version="1.1" xmlns="http://www.w3.org/2000/svg">
<defs>
<linearGradient id="a" y1="34.925" x1="42.805" y2="52.769" gradientUnits="userSpaceOnUse" x2="45.812">
<stop offset="0" stop-color="#997856"/>
<stop offset="1" stop-color="#67513a"/>
</linearGradient>
</defs>
<g transform="translate(0 -968.36)">
<path d="m70.5 41.75c0-5-14.625-9.75-22.875-9.875s-22.5 7.75-26.125 7.625-6.9619-5.8655-8.5-3.875c-2.125 2.75 2.75 3.625 2.625 6.375s-4.375 3.875-2.75 6.625c1.2622 2.1361 4.5-4 8.375-4s16.5 6.875 26.875 7.125 22.25-6.125 22.375-10z" transform="translate(0 968.36)" fill="url(#a)" stroke-width=".8" stroke="#000"/>
<path d="m60.25 38.375a1.9375 1.875 0 1 1 -3.875 0 1.9375 1.875 0 1 1 3.875 0z" transform="translate(0 968.36)" fill="#fff" style="color:#000000"/>
<path d="m59.264 38.513a0.90598 1.0275 0 1 1 -1.812 0 0.90598 1.0275 0 1 1 1.812 0z" transform="matrix(1.0488 0 0 1 -2.9351 968.19)" style="color:#000000"/>
<path d="m62.875 1012.4c-1.25 4.625 1.9532 8.3948 1 12-0.79259 2.9979-4.25 6.25-4.25 6.25s1.3325-3.698 2.125-7c0.75-3.125-3.25-6.625-1.5-11.875" fill="#745b41" stroke-width="1px" stroke-linecap="round" stroke="#000"/>
<path d="m58.25 1018.5c1.375 6.25-0.375 9.625-4.25 10.625" fill="none" stroke-width="1px" stroke="#000"/>
<path d="m51.875 1015.6c-3.875 4.875-5.75 6.75-5 7.875s3.75 1.125 5 0.625 2.875-6.5 2.875-6.5" fill="#735a40" stroke-width="1px" stroke-linecap="round" stroke="#000"/>
<path d="m47.25 1000.6c-2.375-3.5-7.375-7.125-9-6.125s-1.625 2.875-1.75 4.375 4.125 3.25 4.125 3.25" fill="#9a7956" stroke-width="1px" stroke-linecap="round" stroke="#000"/>
<path d="m41.75 1018.9c-0.75 2.25-1 4.125-3.625 4.375s-9.875-2.5-10.375-4.375 4.25-3.25 4.25-3.25" fill="#745b41" stroke-width="1px" stroke-linecap="round" stroke="#000"/>
</g>
</svg>
