<?xml version="1.0" encoding="UTF-8" standalone="no"?>
<svg viewBox="0 0 84 84" version="1.1" xmlns="http://www.w3.org/2000/svg">
<g transform="translate(0 -968.36)">
<g transform="translate(-63,-63)" stroke="#000">
<path fill="#9e9082" d="m131.78 1063.1c1.2948 4.8294-11.601 13.204-19.538 15.462-7.9362 2.2571-21.84-0.1208-25.309 0.9386s-2.3571 4.8054-3.2963 8.3408c-2.3761 3.4754-1.4058-3.9012-3.6128-4.7759-2.5591-1.0143-4.6624 1.1389-3.8096-3.0634 0.68355-3.368 4.6952-4.5477 8.438-5.5511 3.7428-1.0035 12.97-12.287 22.926-15.216 9.9564-2.9281 23.077 0.1544 24.201 3.8649z" stroke-width=".8"/>
<path fill="none" d="m117.78 1058.2c-0.29034-6.3929-4.791-7.638-7.1687-3.1654" stroke-width="1px"/>
<path fill="#857667" stroke-linecap="round" d="m112.37 1062.7c-3.06-2.998-6.0929-0.9111-6.4785-3.3114-0.11942-2.2804 1.6231-3.4435 2.9599-3.2842 1.3368 0.1592 5.7776 3.9194 5.7776 3.9194" stroke-width="1px"/>
<path fill="#9e9082" stroke-linecap="round" d="m111.79 1078.3c-1.3877 3.9957-5.2784 8.7918-7.107 8.2467-1.8285-0.5451-2.314-2.3562-2.8232-3.7726-0.50917-1.4165 3.1427-4.2074 3.1427-4.2074" stroke-width="1px"/>
<path fill="#9d8e80" stroke-linecap="round" d="m102 1062.6c-1.3071-1.9791-5.5413-2.3766-7.8825-1.1633-2.4128 1.2503-7.4104 5.0819-5.8899 6.2877 1.5018 1.1909 5.6962 0.477 5.6962 0.477" stroke-width="1px"/>
<path fill="#857667" stroke-linecap="round" d="m123.84 1063c-1.7179-2.8942-4.6809-5.0116-7.3261-5.1659-3.493-0.2037-7.9098 9.4948-7.9098 9.4948s4.9398-8.5625 7.738-7.7813c2.3807 0.6647 3.0739 1.9936 5.1243 4.7373" stroke-width="1px"/>
<path fill="none" stroke-linecap="round" transform="translate(0 968.36)" stroke-width=".8" d="m118.66 100.18 4.1556 2.0336"/>
<path fill="none" stroke-linecap="round" transform="translate(0 968.36)" stroke-width=".8" d="m121.75 99.119-2.0336 4.1556"/>
</g>
</g>
</svg>
