<?xml version="1.0" encoding="UTF-8" standalone="no"?>
<svg viewBox="0 0 84 84" xmlns:xlink="http://www.w3.org/1999/xlink" version="1.1" xmlns="http://www.w3.org/2000/svg">
<defs>
<linearGradient id="a" x1="15.75" y1="52.5" y2="68.25" gradientTransform="translate(0 968.36)" x2="31.5" gradientUnits="userSpaceOnUse">
<stop offset="0" stop-color="#5bca59"/>
<stop offset="1" stop-color="#589931"/>
</linearGradient>
</defs>
<g transform="translate(0 -968.36)">
<path fill="#e6a737" d="m13.125 1023.5h2.625l39.375-39.375v-2.6251l-2.625-2.625s-10.3 7.3503-18.448 13.565c-4.6543 3.5499-10.322 14.003-11.896 16.638-2.1766 3.6419-11.655 11.797-11.655 11.797z" stroke-width=".5" stroke="#e6a737"/>
<path fill="url(#a)" d="m13.125 1023.5s9.4556-7.3288 12.394-11.283c3.5714-4.8063 7.1507-14.426 13.57-18.695 7.048-4.6882 16.037-12.022 16.037-12.022l15.75 15.75s-10.727 8.1524-16.583 11.712c-6.2184 3.7794-8.2065 14.419-12.198 19.889-3.8186 5.2326-13.219 10.399-13.219 10.399z" stroke-width=".5" stroke="url(#a)"/>
<path fill="none" stroke-linecap="round" d="m13.125 1023.5s9.4556-7.3288 12.394-11.283c3.5714-4.8063 7.1507-14.426 13.57-18.695 7.048-4.6882 16.037-12.022 16.037-12.022m15.75 15.75s-10.727 8.1525-16.583 11.712c-6.2184 3.7794-8.2065 14.419-12.198 19.889-3.8186 5.2327-13.219 10.399-13.219 10.399" stroke-width=".8" stroke="#000"/>
<path fill="none" stroke-linecap="round" d="m52.5 978.86s-10.3 7.3503-18.448 13.565c-4.6543 3.5499-10.322 14.003-11.896 16.638-2.178 3.6-11.656 11.8-11.656 11.8" stroke-width=".8" stroke="#000"/>
<path fill="none" stroke-linecap="round" d="m64.936 997.61c-6.3728 5.4631-10.444 4.3768-16.531 12.569" stroke-width=".6" stroke="#000"/>
<path fill="#ecec67" d="m51.142 994.19c-0.26447-2.386 2.3869-2.2989 3.3595-2.741 0.97259-0.4421 2.0332-2.4759 3.6247-2.0338s1.6363 1.3272 1.3701 2.919c-0.39869 2.3426 1.0579 1.944-0.1798 3.8881-0.9285 1.7675-2.4751 1.0629-3.8897 0.09-1.4147-0.9727-4.0203 0.2635-4.2848-2.1226z" stroke-width=".6" stroke="#000"/>
<path fill="#ecec67" d="m39.158 999.92c0.77135-2.8561 2.4069-2.3005 4.9082-2.699 1.724-0.3088 4.0121-1.8766 4.0645 1.2848s-1.8573 2.1207-2.9183 2.8722-2.0775 2.2996-3.8897 1.9454c-1.6849-0.3294-2.7835-2.3867-2.1646-3.4034z" stroke-width=".6" stroke="#000"/>
<path fill="#ecec67" d="m30.413 1011.5c0.61892-1.0169 1.9452-2.4756 2.9178-2.9177 0.97259-0.4421 2.8283-2.0342 4.4198-1.5921s2.608 3.1823 1.2818 5.0391c-1.3263 1.8568-4.0216-0.7063-5.0826 0-1.061 0.7074-1.0175 2.4321-2.5646 2.387-1.716-0.05-1.591-1.9007-0.97205-2.9176z" stroke-width=".6" stroke="#000"/>
<path fill="none" stroke-linecap="round" d="m46.494 1015.3c-6.7476 12.084-10.194 15.87-16.781 20.315" stroke-width=".6" stroke="#000"/>
<path fill="#ecec67" d="m24.194 1024.9c0.30973-1.8118 2.1181-2.5637 3.1828-2.6527 1.591-0.1329 3.4025-3.8452 4.994-3.4031s-0.36878 3.7831-1.6776 5.8342c-1.3088 2.0512-0.62188 3.9051-2.9211 3.9342-2.2993 0.029-3.8878-1.9008-3.578-3.7126z" stroke-width=".6" stroke="#000"/>
</g>
</svg>
