<?xml version="1.0" encoding="UTF-8" standalone="no"?>
<svg version="1.1" viewBox="0 0 84 84" xmlns:xlink="http://www.w3.org/1999/xlink" xmlns="http://www.w3.org/2000/svg">
<defs>
<linearGradient id="h" xlink:href="#a" gradientUnits="userSpaceOnUse" gradientTransform="translate(189 905.36)" x1="15.75" x2="31.5" y2="68.25" y1="52.5"/>
<linearGradient id="a">
<stop offset="0" stop-color="#5bca59"/>
<stop offset="1" stop-color="#589931"/>
</linearGradient>
<linearGradient id="i" xlink:href="#a" gradientUnits="userSpaceOnUse" gradientTransform="translate(147 -21)" x1="57.75" x2="73.5" y2="994.61" y1="978.86"/>
<clipPath id="f" clipPathUnits="userSpaceOnUse">
<path d="m49.809 33.894-5.5357 1.6964 0.60714 3.125 5.4286-2.3214z"/>
</clipPath>
<clipPath id="g" clipPathUnits="userSpaceOnUse">
<path d="m51.779 35.578-6.343 1.5551 0.69568 2.8646 6.2202-2.128z"/>
</clipPath>
</defs>
<g transform="translate(0 -968.36)">
<g transform="translate(-189 63)">
<path d="m202.12 960.49h2.625l18.375-15.75-1.75-2.125c-6.125-0.125-7.75 2.75-10.75 5.75s-11.125 9.5-11.125 9.5z" stroke="#e6a737" stroke-width=".5" fill="#e6a737"/>
<path stroke-width=".8" stroke-linecap="round" d="m221.38 942.61c-6.125-0.125-7.75 2.75-10.75 5.75s-11.125 9.5-11.125 9.5" fill="none" stroke="#000"/>
<path d="m202.12 960.49s7.2321-5.9465 10.804-9.3393c3.5714-3.3927 9.1071-11.072 13.393-13.572 4.2857-2.5 6.7857-1.25 9.2857-1.25s5.5357-1.6071 7.8572-0.7142c2.3214 0.8928 4.2857 4.643 3.75 5.3572-0.53572 0.7144-10.295 6.2321-11.902 6.5894-1.6071 0.3569-6.92 0.34935-6.92 0.34935s6.1432 3.2398 7.7503 2.7042c1.6071-0.5358 11.32-7.0725 11.964-6.4285 1.4286 1.4285-0.53571 4.4642-3.0357 6.7856s-7.6786 4.2859-9.8214 6.25c-2.1429 1.9644-7.1429 11.25-8.75 13.036-1.6071 1.7856-8.625 5.9821-8.625 5.9821z" stroke="url(#i)" stroke-width=".5" fill="url(#h)"/>
<path stroke-width=".8" stroke-linecap="round" d="m202.12 960.49s7.2321-5.9465 10.804-9.3393c3.5714-3.3927 9.1071-11.072 13.393-13.572 4.2857-2.5 6.7857-1.25 9.2857-1.25s5.5357-1.6071 7.8571-0.7142c2.3214 0.8928 4.2857 4.643 3.75 5.3572-0.53571 0.7144-10.295 6.2321-11.902 6.5894-1.6071 0.3569-6.9732 0.3215-6.9732 0.3215s6.1964 3.2677 7.8036 2.732c1.6071-0.5358 11.32-7.0725 11.964-6.4285 1.4286 1.4285-0.53571 4.4642-3.0357 6.7856s-7.6786 4.2859-9.8214 6.25c-2.1429 1.9644-7.1429 11.25-8.75 13.036-1.6071 1.7856-8.625 5.9821-8.625 5.9821" fill="none" stroke="#000"/>
<path d="m50.893 37.571c0 1.0848-0.87944 1.9643-1.9643 1.9643-1.0848 0-1.9643-0.87944-1.9643-1.9643 0-1.0848 0.87944-1.9643 1.9643-1.9643 1.0848 0 1.9643 0.87944 1.9643 1.9643z" fill="#fff" transform="matrix(1.5273 0 0 1.5273 159.86 883.96)" stroke="#2d882c" clip-path="url(#g)" stroke-width=".2619" fill-rule="evenodd" style="color:#000000"/>
<path transform="matrix(1.75 0 0 1.4 151.77 890.85)" d="m48.036 35.964c0 0.49311-0.3198 0.89286-0.71429 0.89286s-0.71429-0.39975-0.71429-0.89286 0.3198-0.89286 0.71429-0.89286 0.71429 0.39974 0.71429 0.89286z" clip-path="url(#f)" fill-rule="evenodd" style="color:#000000"/>
<path d="m207.92 961.51c1.2378-2.0336 1.9452-2.4756 2.9178-2.9177 0.97259-0.4421 1.5915-2.6526 3.183-2.2106 1.5915 0.4421 2.2988 2.3873 0.97259 4.2442-1.3263 1.8567-2.4757 0.7073-3.5367 1.4146-1.061 0.7074-1.7684 3.0947-3.183 2.1221-1.4147-0.9726-0.35367-2.6526-0.35367-2.6526z" stroke="#000" stroke-width=".6" fill="#ecec67"/>
<path d="m220.23 953.73c1.2378-2.0335-0.54579-2.7762 1.061-3.625 1.4373-0.7594 2.7701-0.6709 3.802 0.6189 1.061 1.3263-0.4418 1.5658-1.061 2.8295-0.54051 1.1028 1.9452 1.4144 0.35367 3.2713-0.88418 1.1494-1.9169 0.7015-3.6251 0.5303-1.7684-0.1766-0.53051-3.625-0.53051-3.625z" stroke="#000" stroke-width=".6" fill="#ecec67"/>
<path stroke-linecap="round" d="m105.81-28.312 4.5625-1.125" fill="none" transform="translate(126 968.36)" stroke="#2d882c" stroke-width=".4"/>
<path stroke-width=".4" d="m233.22 944.02 4.1875-1.5" fill="none" stroke="#2d882c" stroke-linecap="round"/>
</g>
</g>
</svg>
