<?xml version="1.0" encoding="UTF-8" standalone="no"?>
<svg viewBox="0 0 84 84" xmlns="http://www.w3.org/2000/svg" version="1.1" xmlns:xlink="http://www.w3.org/1999/xlink">
<defs>
<linearGradient id="a" y2="68.25" y1="52.5" gradientTransform="matrix(-1 0 0 1 84 968.36)" gradientUnits="userSpaceOnUse" x1="15.75" x2="31.5">
<stop offset="0" stop-color="#5bca59"/>
<stop offset="1" stop-color="#589931"/>
</linearGradient>
</defs>
<g transform="translate(0 -968.36)">
<path fill="#e6a737" stroke-width=".5" stroke="#e6a737" d="m47.25 1013-18.375-28.875v-2.625l2.625-2.625s2.3494 2.9333 4.8443 5.6148c3.9873 4.2856 6.088 7.1677 7.8329 11.514 1.7448 4.3465 2.9467 10.848 3.0729 16.996z"/>
<path fill="none" stroke-linecap="round" stroke-width=".8" stroke="#000" d="m31.5 978.86s2.3494 2.9333 4.8443 5.6148c3.9873 4.2856 6.088 7.1677 7.8329 11.514 1.7448 4.3465 2.9467 10.848 3.0729 16.996"/>
<path fill="url(#a)" stroke-width=".5" stroke="url(#a)" d="m48.057 1011.7c-3.5714-4.8063-3.7021-13.499-9.2375-20.419-5.2876-6.6102-9.9448-9.7681-9.9448-9.7681l-15.75 15.75s6.4543 4.9037 13.049 6.7646c4.6283 1.3059 9.7966 8.7656 13.788 14.236 3.8186 5.2327 15.162 10.5 17.106 8.809 1.9435-1.6908-5.8414-11.092-9.0112-15.372z"/>
<path fill="none" stroke-linecap="round" stroke-width=".8" stroke="#000" d="m13.125 997.24s6.4543 4.9036 13.049 6.7645c4.6283 1.3059 9.7966 8.7656 13.788 14.236 3.8186 5.2327 15.162 10.5 17.106 8.809 1.9435-1.6909-5.8414-11.092-9.0112-15.372-3.5714-4.8063-3.7021-13.499-9.2375-20.419-5.2876-6.6102-9.9448-9.7681-9.9448-9.7681"/>
<path fill="none" stroke-linecap="round" stroke-width=".6" stroke="#000" d="m24.409 1e3c6.8156 1.4545 10.223 5.9563 18.467 17.254"/>
<path fill="#ecec67" stroke-width=".6" stroke="#000" d="m31.983 988.92c-0.79857-1.0525-3.2156-2.153-4.8071-1.7109s-4.6725 2.1376-3.3463 3.9944c1.3263 1.8567 3.4127-0.3547 4.4737 0.3527 1.061 0.7073 1.9744 4.6323 3.4329 3.184s1.0454-4.7677 0.24684-5.8202z"/>
<path fill="#ecec67" stroke-width=".6" stroke="#000" d="m36.358 1000.5c-2.1342 0.4889-1.5478 3.0708-0.64077 4.3977 0.90697 1.327 2.3186 2.4092 3.6251 0.5303 1.3065-1.8788-0.85017-5.4168-2.9843-4.928z"/>
</g>
</svg>
