<?xml version="1.0" encoding="UTF-8" standalone="no"?>
<svg xmlns:xlink="http://www.w3.org/1999/xlink" version="1.1" xmlns="http://www.w3.org/2000/svg" viewBox="0 0 84 84">
<defs>
<linearGradient id="a">
<stop stop-color="#5bca59" offset="0"/>
<stop stop-color="#589931" offset="1"/>
</linearGradient>
<linearGradient id="d" xlink:href="#a" gradientUnits="userSpaceOnUse" x2="31.5" x1="15.75" gradientTransform="translate(0 968.36)" y1="52.5" y2="68.25"/>
<linearGradient id="e" xlink:href="#a" gradientUnits="userSpaceOnUse" x2="73.5" x1="57.75" gradientTransform="translate(-42 42)" y1="978.86" y2="994.61"/>
</defs>
<g transform="translate(0 -968.36)">
<path d="m13.125 1023.5h2.625l18.375-15.75-1.75-2.125c-6.125-0.125-7.75 2.75-10.75 5.75s-11.125 9.5-11.125 9.5z" stroke-width=".5" stroke="#e6a737" fill="#e6a737"/>
<path d="m32.375 1005.6c-6.125-0.125-7.75 2.75-10.75 5.75s-11.125 9.5-11.125 9.5" stroke-width=".8" stroke="#000" stroke-linecap="round" fill="none"/>
<path d="m13.125 1023.5s7.2321-5.9465 10.804-9.3393c3.5714-3.3927 9.1071-11.072 13.393-13.572 4.2857-2.5 6.7857-1.25 9.2857-1.25s5.5357-1.6071 7.8572-0.7142c2.3214 0.8928 4.2857 4.643 3.75 5.3572-0.53572 0.7144-10.357 7.8571-11.964 8.2144-1.6071 0.3569-4.2857 3.5715-4.2857 3.5715s3.5714-1.6073 5.1786-2.143c1.6071-0.5358 11.32-7.0725 11.964-6.4285 1.4286 1.4285-0.53571 4.4642-3.0357 6.7856s-7.6786 4.2859-9.8214 6.25c-2.1429 1.9644-7.1429 11.25-8.75 13.036-1.6071 1.7856-8.625 5.9821-8.625 5.9821z" stroke-width=".5" stroke="url(#e)" fill="url(#d)"/>
<path d="m13.125 1023.5s7.2321-5.9465 10.804-9.3393c3.5714-3.3927 9.1071-11.072 13.393-13.572 4.2857-2.5 6.7857-1.25 9.2857-1.25s5.5357-1.6071 7.8571-0.7142c2.3214 0.8928 4.2857 4.643 3.75 5.3572-0.53571 0.7144-10.357 7.8571-11.964 8.2144-1.6071 0.3569-4.2857 3.5715-4.2857 3.5715s3.5714-1.6073 5.1786-2.143c1.6071-0.5358 11.32-7.0725 11.964-6.4285 1.4286 1.4285-0.53571 4.4642-3.0357 6.7856s-7.6786 4.2859-9.8214 6.25c-2.1429 1.9644-7.1429 11.25-8.75 13.036-1.6071 1.7856-8.625 5.9821-8.625 5.9821" stroke-width=".8" stroke="#000" stroke-linecap="round" fill="none"/>
<path d="m50.893 37.571a1.9643 1.9643 0 1 1 -3.9286 0 1.9643 1.9643 0 1 1 3.9286 0z" transform="matrix(1.5273 0 0 1.5273 -29.143 946.96)" fill-rule="evenodd" stroke-width=".2619" stroke="#2d882c" fill="#fff" style="color:#000000"/>
<path d="m48.036 35.964a0.71429 0.89286 0 1 1 -1.4286 0 0.71429 0.89286 0 1 1 1.4286 0z" transform="matrix(1.75 0 0 1.4 -37.228 953.85)" fill-rule="evenodd" style="color:#000000"/>
<path d="m42.679 1020.8c-1.7857 2.6785-4.4643 7.3213-6.9643 9.6427s-6.6072 5-6.6072 5" stroke-width=".6" stroke="#000" stroke-linecap="round" fill="none"/>
<path d="m38.929 1022.4c-2.5 3.2144-6.0714 7.5001-8.0357 8.5715" stroke-width=".6" stroke="#000" stroke-linecap="round" fill="none"/>
<path d="m18.921 1024.5c1.2378-2.0336 1.9452-2.4756 2.9178-2.9177 0.97259-0.4421 1.5915-2.6526 3.183-2.2106 1.5915 0.4421 2.2988 2.3873 0.97259 4.2442-1.3263 1.8567-2.4757 0.7073-3.5367 1.4146-1.061 0.7074-1.7684 3.0947-3.183 2.1221-1.4147-0.9726-0.35367-2.6526-0.35367-2.6526z" stroke-width=".6" stroke="#000" fill="#ecec67"/>
<path d="m31.231 1016.7c1.2378-2.0335-0.54579-2.7762 1.061-3.625 1.4373-0.7594 2.7701-0.6709 3.802 0.6189 1.061 1.3263-0.4418 1.5658-1.061 2.8295-0.54051 1.1028 1.9452 1.4144 0.35367 3.2713-0.88418 1.1494-1.9169 0.7015-3.6251 0.5303-1.7684-0.1766-0.53051-3.625-0.53051-3.625z" stroke-width=".6" stroke="#000" fill="#ecec67"/>
</g>
</svg>
