<?xml version="1.0" encoding="UTF-8" standalone="no"?>
<svg xmlns:xlink="http://www.w3.org/1999/xlink" version="1.1" viewBox="0 0 84 84" xmlns="http://www.w3.org/2000/svg">
<defs>
<linearGradient id="f">
<stop stop-color="#5bca59" offset="0"/>
<stop stop-color="#589931" offset="1"/>
</linearGradient>
<linearGradient id="d" x2="31.5" gradientUnits="userSpaceOnUse" x1="15.75" gradientTransform="matrix(-1 0 0 1 84 968.36)" xlink:href="#f" y1="52.5" y2="68.25"/>
<linearGradient id="e" x2="31.5" gradientUnits="userSpaceOnUse" x1="15.75" gradientTransform="translate(0 968.36)" xlink:href="#f" y1="52.5" y2="68.25"/>
</defs>
<g transform="translate(0 -968.36)">
<path d="m44.625 989.36h2.625l7.875-5.25v-2.625l-2.625-2.625s-3.6134 2.5686-7.1683 5.3383c-1.7648 1.4987-1.8442 1.567-1.9695 2.9161-0.12529 1.3492 1.2628 2.2456 1.2628 2.2456z" fill="#e6a737" stroke="#e6a737" stroke-width=".5"/>
<path d="m44.625 989.36 10.5-7.875 15.75 15.75-15.75 13.125z" fill="url(#e)" stroke="url(#e)" stroke-width=".5"/>
<path stroke-linecap="round" d="m70.875 997.24-15.75 13.125-10.5-21 10.5-7.875" fill="none" stroke="#000" stroke-width=".8"/>
<path stroke-linecap="round" d="m65.401 997.83c-7.8967 8.372-10.724 6.5895-17.311 11.034" fill="none" stroke="#000" stroke-width=".6"/>
<path d="m70.875 1023.5s-6.452-5.827-9.3901-9.781c-3.5714-4.8063-2.4688-10.274-8.8876-14.543-7.048-4.6882-7.9723-9.8008-7.9723-9.8008s-3.9161 3.9997-6.4117 9.7301c-2.4955 5.7304-1.9401 20.858 3.5088 26.552 5.4489 5.6948 5.3888 7.6144 13.403 13.592z" fill="url(#d)" stroke="url(#d)" stroke-width=".5"/>
<path stroke-linecap="round" d="m44.625 989.36s-3.9161 3.9997-6.4117 9.7301c-2.4955 5.7304-1.9401 20.858 3.5088 26.552 5.4489 5.6948 5.3888 7.6144 13.403 13.592" fill="none" stroke="#000" stroke-width=".8"/>
<path d="m70.875 1023.5s-11.702-10.047-13.741-14.264c-1.384-2.8622-7.5135-9.2451-8.8605-10.252-1.7668-1.3202-4.1418-5.7561-4.7343-6.9087-0.59249-1.1525-0.50097-4.1768-0.37853-4.9849 0.12244-0.8082 1.3352-2.3465 1.3352-2.3465s2.0209 8.2146 8.1911 12.82c4.691 3.5012 9.0663 11.123 12.673 15.348 2.7547 3.2269 8.14 7.9633 8.14 7.9633z" fill="#e6a737" stroke="#e6a737" stroke-width=".5"/>
<path stroke-linecap="round" d="m52.5 978.86s-4.2759 2.7232-7.8308 5.4929" fill="none" stroke="#000" stroke-width=".8"/>
<path stroke-linecap="round" d="m70.875 1023.5s-11.702-10.047-13.741-14.264c-1.384-2.8622-7.5135-9.2452-8.8605-10.252-1.7668-1.3203-4.1418-5.7561-4.7343-6.9087-0.59249-1.1526-0.50097-4.1768-0.37853-4.985 0.12244-0.8081 1.3352-2.3464 1.3352-2.3464s2.0209 8.2146 8.1911 12.82c4.691 3.5013 9.0663 11.123 12.673 15.348 2.7547 3.2268 8.14 7.9632 8.14 7.9632" fill="none" stroke="#000" stroke-width=".8"/>
<path stroke-linecap="round" d="m38.314 1016.4c3.182 6.6109 8.463 9.9766 16.104 16.731" fill="none" stroke="#000" stroke-width=".6"/>
<path fill="#ecec67" stroke="#000" stroke-width=".6" d="m52.644 1021.8c0.30973-1.8118 2.5601-0.796 3.6247-0.885 1.591-0.1329 3.5792-2.1658 5.1707-1.7237s1.6642 2.8108 0.35535 4.8619c-1.3088 2.0512-1.5058 2.5793-3.805 2.6084-2.2993 0.029-5.6556-3.0498-5.3458-4.8616z"/>
<path fill="#ecec67" stroke="#000" stroke-width=".6" d="m41.595 1009.5c-0.30899-3.4028-3.6271-5.5689-0.97146-6.1882 1.5548-0.3626 2.1383 1.3644 3.2262 2.6073 1.238 1.4144 3.0784 1.5734 1.7696 3.6245-1.3088 2.0512 2.0298 4.6122-0.26948 4.6413-2.2993 0.029-3.4458-1.2821-3.7548-4.6849z"/>
<path fill="#ecec67" stroke="#000" stroke-width=".6" d="m55.078 987.72c-2.1342 0.4889-3.0504 4.2198-2.1434 5.5467 0.90697 1.327 4.3515-1.0379 5.658-2.9168 1.3065-1.8788-1.3805-3.1187-3.5147-2.6299z"/>
</g>
</svg>
