<?xml version="1.0" encoding="UTF-8" standalone="no"?>
<svg version="1.1" viewBox="0 0 84 84" xmlns="http://www.w3.org/2000/svg" xmlns:xlink="http://www.w3.org/1999/xlink">
<defs>
<linearGradient id="f">
<stop stop-color="#5bca59" offset="0"/>
<stop stop-color="#589931" offset="1"/>
</linearGradient>
<linearGradient id="d" gradientUnits="userSpaceOnUse" gradientTransform="translate(0 968.36)" y1="52.5" x2="52.5" x1="68.25" xlink:href="#f" y2="68.25"/>
<linearGradient id="e" gradientUnits="userSpaceOnUse" gradientTransform="translate(0 968.36)" y1="52.5" x2="31.5" x1="15.75" xlink:href="#f" y2="68.25"/>
</defs>
<g transform="translate(0 -968.36)">
<path stroke-width=".5" stroke="#e6a737" d="m13.125 1023.5h57.75l2.625-2.625s-7.875-5.25-10.5-10.5c-3.7903-7.5805-8.6945-16.28-19.312-15.17-6.3605 0.66448-20.715 12.979-21.533 13.873-2.8632 3.131-11.655 11.797-11.655 11.797z" fill="#e6a737"/>
<path stroke-width=".5" stroke="url(#e)" d="m13.125 1023.5s16.703-14.577 19.642-18.531c1.5513-2.0877 5.2888-3.7994 9.3075-4.3819l-0.01664 29.809c-1.6235 0.4341-3.2068 1.3711-4.118 2.785-2.2117 3.4319-9.0644 6.0681-9.0644 6.0681z" fill="url(#e)"/>
<path stroke-width=".5" stroke="url(#d)" d="m42.074 1000.6c5.2332-0.75841 10.943 0.3979 12.924 5.1322 3.2672 7.8088 15.877 17.78 15.877 17.78l-15.75 15.75s-6.0605-5.135-7.875-7.875c-0.82551-1.2466-3.0443-1.5526-5.1926-0.9781z" fill="url(#d)"/>
<path stroke-width=".8" stroke="#000" d="m55.125 1039.2s-6.0605-5.135-7.875-7.875c-1.4494-2.1886-7.1936-1.478-9.3106 1.8069-2.2117 3.4319-9.0644 6.0681-9.0644 6.0681m-15.75-15.75s16.703-14.577 19.642-18.531c3.5714-4.8063 18.73-7.6196 22.232 0.7503 3.2672 7.8088 15.877 17.78 15.877 17.78" stroke-linecap="round" fill="none"/>
<path stroke-width=".8" stroke="#000" d="m73.5 1020.9s-7.875-5.25-10.5-10.5c-3.7902-7.5805-8.6945-16.28-19.312-15.17-6.3605 0.6645-20.715 12.979-21.533 13.874-2.8632 3.131-11.655 11.797-11.655 11.797" stroke-linecap="round" fill="none"/>
<path stroke-width=".6" stroke="#000" d="m34.098 1031.5c6.2845-9.9165 13.096-6.3 19.183 1.8926" stroke-linecap="round" fill="none"/>
<path stroke-width=".6" stroke="#000" d="m64.349 1023.5c-0.58702-2.1479-2.5606-5.1158-3.8906-4.7748s-2.94 1.9241-2.6075 3.0074c0.33244 1.0833-1.5229 1.6771-1.2344 3.4462 0.28853 1.769 3.706 0.7043 4.862 2.1229s3.4576-1.6538 2.8705-3.8017z" fill="#ecec67"/>
<path stroke-width=".6" stroke="#000" d="m49.763 1014.4c-2.096-0.9591-4.0006 1.0402-4.4637 2.2119-0.46306 1.1717 0.86354 2.4726 2.2127 3.0926s2.7021 1.8358 3.713-0.7055c1.0108-2.5413 0.63401-3.6399-1.462-4.599z" fill="#ecec67"/>
<path stroke-width=".6" stroke="#000" d="m44.107 1004.1c-1.3139-0.5629-2.5649-1.5132-3.9783-0.089-1.4134 1.4239-2.8344 2.4717-2.0742 3.8019 0.76021 1.3301 2.1939-0.4374 3.8897-0.7055 1.6798-0.2656 4.4476 2.499 4.7267 0.8826 0.27914-1.6164-1.2501-3.3269-2.564-3.8897z" fill="#ecec67"/>
<path stroke-width=".6" stroke="#000" d="m34.119 1012.7c-1.1582-0.4985-3.3086 0.3383-5.746 1.9437s0.20491 5.2078 3.053 3.2732c2.8481-1.9347 2.9487-0.3536 5.1686-2.211 2.22-1.8574-1.3173-2.5073-2.4756-3.0059z" fill="#ecec67"/>
<path stroke-width=".6" stroke="#000" d="m29.258 1025.5c-3.1589-1.4286-3.3312 0.8695-5.3925 1.7669s-0.5126 2.8507 0.04713 3.8903 2.3967 2.5903 4.6852 1.0623c2.2886-1.528 3.819-5.2909 0.66012-6.7195z" fill="#ecec67"/>
<path stroke-width=".6" stroke="#000" d="m36.636 1025.2c4.4283-3.2874 7.704-2.411 11.404-0.1404" stroke-linecap="round" fill="none"/>
</g>
</svg>
