<?xml version="1.0" encoding="UTF-8" standalone="no"?>
<svg version="1.1" xmlns:xlink="http://www.w3.org/1999/xlink" viewBox="0 0 84 84" xmlns="http://www.w3.org/2000/svg">
<defs>
<linearGradient id="f" xlink:href="#a" gradientTransform="translate(189 905.36)" x2="31.5" x1="15.75" gradientUnits="userSpaceOnUse" y1="52.5" y2="68.25"/>
<linearGradient id="a">
<stop stop-color="#5bca59" offset="0"/>
<stop stop-color="#589931" offset="1"/>
</linearGradient>
<linearGradient id="g" xlink:href="#a" gradientTransform="translate(147 -21)" x2="73.5" x1="57.75" gradientUnits="userSpaceOnUse" y1="978.86" y2="994.61"/>
<linearGradient id="h" gradientTransform="translate(147 -21)" x2="73.5" x1="57.75" gradientUnits="userSpaceOnUse" y1="978.86" y2="994.61">
<stop stop-color="#5bca59" offset="0"/>
<stop stop-color="#589931" offset="1"/>
</linearGradient>
<linearGradient id="i" x2="212.62" x1="225.75" gradientUnits="userSpaceOnUse" y1="955.24" y2="968.36">
<stop stop-color="#fff" offset="0" stop-opacity=".31532"/>
<stop stop-opacity="0" offset="1"/>
</linearGradient>
</defs>
<g transform="translate(0 -968.36)">
<g transform="translate(-189,63)">
<path fill="#e6a737" d="m202.12 960.49h2.625l18.375-15.75-1.75-2.125c-6.125-0.125-7.75 2.75-10.75 5.75s-11.125 9.5-11.125 9.5z" stroke-width=".5" stroke="#e6a737"/>
<path fill="none" d="m221.38 942.61c-6.125-0.125-7.75 2.75-10.75 5.75s-11.125 9.5-11.125 9.5" stroke-width=".8" stroke-linecap="round" stroke="#000"/>
<path fill="url(#f)" d="m202.12 960.49s7.2321-5.9465 10.804-9.3393c3.5714-3.3927 9.1071-11.072 13.393-13.572 4.2857-2.5 6.7857-1.25 9.2857-1.25s5.5357-1.6071 7.8572-0.7142c2.3214 0.8928 4.2857 4.643 3.75 5.3572-0.53572 0.7144-10.607 6.3571-12.214 6.7144-1.6071 0.3569-0.5 5.5536-0.5 5.5536s1.3969-2.8182 3.004-3.3539c1.6071-0.5358 9.977-1.9192 10.621-1.2752 1.4286 1.4285-2.9228 3.0628-5.8383 4.6049-3.0157 1.5951-4.8938 2.0421-7.0367 4.0062-2.1429 1.9644-7.1429 11.25-8.75 13.036-1.6071 1.7856-8.625 5.9821-8.625 5.9821z" stroke-width=".5" stroke="url(#g)"/>
<path fill="url(#i)" d="m202.12 960.49s7.2321-5.9465 10.804-9.3393c3.5714-3.3927 9.1071-11.072 13.393-13.572 4.2857-2.5 6.7857-1.25 9.2857-1.25s5.5357-1.6071 7.8572-0.7142c2.3214 0.8928 4.2857 4.643 3.75 5.3571-0.53572 0.7144-10.607 6.3571-12.214 6.7144-1.6071 0.3569-0.5 5.5536-0.5 5.5536s1.3969-2.8182 3.004-3.3539c1.6071-0.5358 9.977-1.9191 10.621-1.2751 1.4286 1.4285-2.9228 3.0628-5.8383 4.6049-3.0157 1.5951-4.8938 2.042-7.0367 4.0061-2.1429 1.9644-7.1429 11.25-8.75 13.036-1.6071 1.7856-8.625 5.9821-8.625 5.9821z" stroke-width=".5" stroke="url(#h)"/>
<path fill="none" d="m202.12 960.49s7.2321-5.9465 10.804-9.3393c3.5714-3.3927 9.1071-11.072 13.393-13.572 4.2857-2.5 6.7857-1.25 9.2857-1.25s5.5357-1.6071 7.8571-0.7142c2.3214 0.8928 4.2857 4.643 3.75 5.3572-0.53571 0.7144-10.607 6.3571-12.214 6.7144-1.6071 0.3569-0.5 5.5536-0.5 5.5536s1.8482-3.0269 3.4554-3.5626c1.6071-0.5358 9.3204-1.9475 9.9643-1.3035 1.4286 1.4285-1.0357 2.3392-3.7232 3.8481-2.9748 1.6702-6.8036 3.0359-8.9464 5-2.1429 1.9644-7.1429 11.25-8.75 13.036-1.6071 1.7856-8.625 5.9821-8.625 5.9821" stroke-width=".8" stroke-linecap="round" stroke="#000"/>
<path fill="#c22" d="m171.5-79.375c2.5625-0.9375 2.8125 2.375 4.875 1.25s-0.375-3.4375-2.3125-3.8125-2.5625-0.625-2.5625-0.625" stroke-width=".8" transform="translate(63 1031.4)" stroke="#000"/>
<path fill="none" d="m231.68 957.76c-1.7857 2.6785-4.4643 7.3213-6.9643 9.6427s-6.6072 5-6.6072 5" stroke-width=".6" stroke-linecap="round" stroke="#000"/>
<path fill="none" d="m227.93 959.36c-2.5 3.2144-6.0714 7.5001-8.0357 8.5715" stroke-width=".6" stroke-linecap="round" stroke="#000"/>
<path fill="#ecec67" d="m207.92 961.51c1.2378-2.0336 1.9452-2.4756 2.9178-2.9177 0.97259-0.4421 1.5915-2.6526 3.183-2.2106 1.5915 0.4421 2.2988 2.3873 0.97259 4.2442-1.3263 1.8567-2.4757 0.7073-3.5367 1.4146-1.061 0.7074-1.7684 3.0947-3.183 2.1221-1.4147-0.9726-0.35367-2.6526-0.35367-2.6526z" stroke-width=".6" stroke="#000"/>
<path fill="#ecec67" d="m220.23 953.73c1.2378-2.0335-0.54579-2.7762 1.061-3.625 1.4373-0.7594 2.7701-0.6709 3.802 0.6189 1.061 1.3263-0.4418 1.5658-1.061 2.8295-0.54051 1.1028 1.9452 1.4144 0.35367 3.2713-0.88418 1.1494-1.9169 0.7015-3.6251 0.5303-1.7684-0.1766-0.53051-3.625-0.53051-3.625z" stroke-width=".6" stroke="#000"/>
<path d="m173.88-89.062-5.0625-2.3125" stroke-linecap="round" stroke-width=".8" fill="none" transform="translate(63 1031.4)" stroke="#000"/>
<path d="m170-87.5 2.6875-5.3125" stroke-linecap="round" stroke-width=".8" fill="none" transform="translate(63 1031.4)" stroke="#000"/>
</g>
</g>
</svg>
