<?xml version="1.0" encoding="UTF-8" standalone="no"?>
<svg xmlns:xlink="http://www.w3.org/1999/xlink" viewBox="0 0 84 84" xmlns="http://www.w3.org/2000/svg" version="1.1">
<defs>
<linearGradient id="f">
<stop stop-color="#5bca59" offset="0"/>
<stop stop-color="#589931" offset="1"/>
</linearGradient>
<linearGradient id="d" x2="52.5" xlink:href="#f" y1="52.5" gradientUnits="userSpaceOnUse" y2="68.25" gradientTransform="matrix(-1 0 0 1 84 968.36)" x1="68.25"/>
<linearGradient id="e" x2="31.5" xlink:href="#f" y1="52.5" gradientUnits="userSpaceOnUse" y2="68.25" gradientTransform="matrix(-1 0 0 1 84 968.36)" x1="15.75"/>
</defs>
<g transform="translate(0 -968.36)">
<path stroke-width=".5" stroke="#e6a737" d="m55.125 981.49v2.625l-12.854 13.17-13.396-13.17v-2.625l2.625-2.625s4.0126 1.3258 6.6376 3.9508 6.2223-1.9179 8.8473 0.7071c1.8562 1.8562 5.5152-4.6579 5.5152-4.6579z" fill="#e6a737"/>
<path stroke-width=".5" stroke="url(#e)" d="m42.079 988.59c-1.311 0.2956-2.8462 0.1598-5.8297-1.8882-2.4518-1.683-7.3747-5.2162-7.3747-5.2162l-15.75 15.75s12.151 7.4891 16.406 12.861c3.1835 4.0186 7.8812 7.5846 12.489 8.6323z" fill="url(#e)"/>
<path stroke-width=".5" stroke="url(#d)" d="m55.125 981.49s-3.2832 7.7439-7.6922 6.5872c-2.6763-0.7021-3.8716 0.1831-5.3534 0.5172l-0.0592 30.138c3.8809 0.8825 7.6979-0.021 10.493-3.9457 3.7578-5.2765 18.362-17.547 18.362-17.547z" fill="url(#d)"/>
<path stroke-linecap="round" stroke="#000" d="m55.125 981.49s-3.2832 7.7439-7.6922 6.5872c-5.0441-1.3233-4.8273 2.9919-11.183-1.371-2.4518-1.683-7.3747-5.2162-7.3747-5.2162m-15.75 15.75s12.151 7.4891 16.406 12.861c5.8648 7.4033 16.869 13.27 22.982 4.6866 3.7578-5.2765 18.362-17.547 18.362-17.547" stroke-width=".8" fill="none"/>
<path stroke-linecap="round" stroke="#000" d="m31.5 978.86s4.0126 1.3258 6.6376 3.9508 6.2223-1.9179 8.8473 0.7071c1.8562 1.8562 5.5152-4.6579 5.5152-4.6579" stroke-width=".8" fill="none"/>
<path stroke-linecap="round" stroke="#000" d="m31.278 1006.4c11.323 12.711 19.106 8.7259 23.16 2.1577" stroke-width=".6" fill="none"/>
<path stroke-width=".6" stroke="#000" d="m25.128 988.19c0.61892-1.0168 2.0336-2.0337 3.0062-2.4758 0.97259-0.4421 1.1496 1.8552 2.7411 2.2972 1.5915 0.4421 3.0943 2.0338 1.7681 3.8906-1.3263 1.8568-1.5918-0.7069-2.6528 0.0004-1.061 0.7074-2.5638 1.0618-3.9785 0.089-1.4147-0.9726-1.5029-2.7848-0.884-3.8016z" fill="#ecec67"/>
<path stroke-width=".6" stroke="#000" d="m55.161 989.42c1.2041-0.6025 3.1082-0.5215 3.9778 0.8828 1.1496 1.8563 1.2822 3.8894-0.0441 5.7462s-1.8119-1.0609-3.3149-1.9445c-1.5029-0.8836-2.6968 2.1669-4.244 2.1218-1.716-0.05-1.3434-0.803-0.79527-3.0944 0.54808-2.2913 3.2163-3.1093 4.4204-3.7119z" fill="#ecec67"/>
<path stroke-width=".6" stroke="#000" d="m36.837 1000.4c0.01544-2.1894-2.6321-2.2129-4.1321-1.6357-1.5001 0.5772-2.8782 1.7018-1.3504 3.4057 1.5276 1.7038 5.467 0.4194 5.4826-1.77z" fill="#ecec67"/>
<path stroke-width=".6" stroke="#000" d="m45.532 1003.4c-1.5686-0.5386-4.337-2.4781-4.2839 0.3547s4.1384 3.6285 5.8343 3.3604c1.6798-0.2656 6.0386-1.2133 5.4338-3.0949-0.60475-1.8815-2.272-0.3037-3.6246-0.6193-1.3527-0.3156-1.791 0.5376-3.3596-0.0009z" fill="#ecec67"/>
</g>
</svg>
