<?xml version="1.0" encoding="UTF-8" standalone="no"?>
<svg xmlns="http://www.w3.org/2000/svg" version="1.1" viewBox="0 0 84 84">
<g transform="translate(0 -968.36)">
<g transform="translate(-64,-58)">
<path stroke-width=".8" fill="#846b5a" stroke="#000" d="m109.86 1075.2s-3.5096 5.1564-2.3541 9.4521c0.57283 2.1296-3.2431 1.3427-5.0179 0.6418-1.6193-0.6395-2.8534-2.1144-3.1426-3.6537-0.68932-3.6685 3.3288-6.5094 3.3288-6.5094z"/>
<path stroke-width=".8" fill="#846c5a" stroke="#000" d="m97.442 1060.8s-3.0797-0.2893-5.137 2.1589c-1.0789 1.2839-2.695-4.643-1.7734-5.7724 2.8077-3.4406 8.8906-0.1553 8.8906-0.1553z"/>
<path stroke-width=".8" fill="#b3a88f" stroke="#000" d="m90.435 1074.8c0.05045 3.0005-2.4348 5.1917 0.94104 9.2537 0 0-1.7546 1.4685-2.6356 0.9788-0.88093-0.4895-1.0164-2.161-1.917-2.2003-0.90052-0.039-1.005 2.2352-1.5848 2.0017-0.57976-0.2334-0.93377-2.9823-0.93377-2.9823s-2.4191 2.4696-2.7413 1.2686c-0.36234-1.3509 1.0024-2.7285 0.50695-3.3053-0.49543-0.5768-2.2007 1.5812-2.7187 0.7259-0.518-0.8554 1.0927-3.5476 0.8337-3.9753s-2.7306 0.3999-2.8405-0.2642c-0.10993-0.6642 1.5363-1.7809 1.8118-2.5326-0.83268-1.1023-2.4171-0.7728-2.4171-0.7728s1.2909-1.9435 2.7226-2.4712c0.63853-1.1174-3.5582-0.2638-3.004-1.0379 0.55421-0.774 3.2388-0.7339 3.4301-1.1418 0.19124-0.4082-3.0009-1.1259-1.5892-1.6913 5.5954-2.2413 9.6075 3.2476 9.6075 3.2476z"/>
<path stroke-width=".8" fill="#a58c7b" stroke="#000" d="m124.94 1065.8c-2.2093 2.7532-8.3178 7.5838-15.106 9.2437-9.4848 2.2587-10.618-2.567-14.046-3.2838-3.93-0.8218-7.3712 5.1394-9.6626 2.3122-2.2059-2.7216 4.443-7.7636 8.5655-7.8305 4.1415-0.067 0.80086-9.6531 8.7337-11.414 13.789-3.0614 16.839 3.176 19.36 3.0002 2.5218-0.1758 9.2328 1.7915 9.2328 1.7915s-2.4954 4.8447-7.0786 6.1811z"/>
<path stroke-width=".8" fill="#846b5a" stroke="#000" d="m120.71 1064.1s-1.2111 1.2215-1.4329 2.8404c-1.2825 1.3097-2.834-2.7024-2.2507-4.1124 0.58328-1.4099 2.8708-2.3889 2.8708-2.3889"/>
<path fill="#767ea2" d="m83.024 1067.5c-0.84966-0.3585-2.6153 2.0167-2.7581 4.1697-0.14279 2.1531 1.9962 6.1727 3.5327 7.5155 1.5366 1.3429 4.3922 2.1034 4.7543 1.6775 0.36203-0.426 0.24834-1.9178 0.06517-2.2203-0.18312-0.3024-2.3118-0.456-3.3607-1.1642-1.0488-0.7081-2.1352-3.3592-2.4766-5.1134-0.32723-1.6811 0.85472-2.9532 1.1308-3.7832 0.17864-0.537-0.03781-0.723-0.88749-1.0816z"/>
<path stroke-width=".8" stroke-linecap="round" fill="none" stroke="#000" d="m105.68 1077.1s-3.7189 2.9893-1.0255 6.7056"/>
<path stroke-width=".8" stroke-linecap="round" fill="none" stroke="#000" d="m97.022 1058.3s-3.1193-0.8821-4.8676 1.1258"/>
<path stroke-width="1px" stroke-linecap="round" fill="none" stroke="#000" d="m122.91 1061.5 3.1562 2.4375"/>
<path stroke-width="1px" stroke-linecap="round" fill="none" stroke="#000" d="m123.1 1064.3 2.5625-3.1563"/>
</g>
</g>
</svg>
