<?xml version="1.0" encoding="UTF-8" standalone="no"?>
<svg version="1.1" xmlns="http://www.w3.org/2000/svg" viewBox="0 0 84 84">
<defs>
<linearGradient id="a" x2="46.54" gradientUnits="userSpaceOnUse" x1="38.834" y1="1003" y2="1018.6">
<stop stop-color="#e5680f" offset="0"/>
<stop stop-color="#b5520c" offset="1"/>
</linearGradient>
</defs>
<g transform="translate(0 -968.36)">
<path d="m42 999.74s-3.25-6.5-4.625-7.375-6.25-0.5-6.875 1.125-1.25 3.375-0.5 4.75c0.64467 1.1819 5 3.125 5 3.125z" stroke="#000" stroke-width=".8" fill="#b2510c"/>
<path d="m33 1016.5s-4.625 0.875-5.375 2.375 0.5 6.375 1.75 7.125 6.375-6.25 6.375-6.25z" stroke="#000" stroke-width=".8" fill="#b2510c"/>
<path d="m22.5 1006.2-4.375-8.125s-1.875-0.625-2.375 0.25 0.25 2.375-0.5 2.875-2.75 0.5-3.125 1 0.875 2.75 0.875 2.75-3.5 0.375-3.375 1.25 3.125 1.625 3 2.375-3 0.75-3 1.75 3.125 1.75 3.125 2.25-1.75 2.625-1.5 3.25 3.125-0.75 3.75-0.25-1.125 2.625-1.125 2.625 2.125-1.25 3.25-0.625-1.375 2.625-0.5 3 2.5-2.25 2.875-2 0.125 2.5 1.625 2.25 1.75-9.125 1.75-9.125z" stroke="#000" stroke-width=".8" fill="#f7d992"/>
<path d="m58.75 1005.6c-2.7535-2.2089-9.7637-5.6007-16.75-5.75-9.7489-0.14926-9.5 6.125-13 6.25s-10.549-0.2514-10.625 3.25c-0.07598 3.5023 6.625 2 10.75 2.375s2.874 9.25 11 9.25c14.125 0 15.75-6.75 18.25-7.125s8.625-3.75 8.625-3.75-3.4861-4.1887-8.25-4.5z" stroke="#000" stroke-width=".8" fill="url(#a)"/>
<path d="m60.875 40.125c0 0.82843-0.67157 1.5-1.5 1.5s-1.5-0.67157-1.5-1.5 0.67157-1.5 1.5-1.5 1.5 0.67157 1.5 1.5z" transform="matrix(1.2708 0 0 1.1875 -16.487 961.12)" style="color:#000000" fill="#fff"/>
<path transform="matrix(1.3407 0 0 1.3772 -21.093 953.45)" style="color:#000000" d="m60.424 40.17c0 0.39052-0.32648 0.70711-0.7292 0.70711-0.40273 0-0.7292-0.31658-0.7292-0.70711 0-0.39052 0.32648-0.70711 0.7292-0.70711 0.40273 0 0.7292 0.31658 0.7292 0.70711z"/>
<path d="m55 1008.2s-1.375-1.625-2.125-1.125-1.625 4.125-0.75 5.375 2.875-0.5 2.875-0.5" stroke="#000" stroke-width=".8" fill="#b2510c"/>
<path d="m21.719 1017.1c-0.54105 0.7469-5.0374-1.0687-6.2748-2.8365s-1.49-6.314-0.87132-8.2586c0.61872-1.9445 3.6302-4.9283 4.1605-4.7515 0.53033 0.1768 1.233 1.6339 1.233 1.9874 0 0.3536-2.7312 2.3196-3.2615 3.4686-0.53033 1.1491-0.08631 3.9795 0.53033 5.6569 0.59094 1.6075 3.8606 2.9445 4.5266 3.5115 0.43097 0.3668 0.49816 0.4754-0.04289 1.2222z" fill="#284aef"/>
<path stroke-width=".8" d="m37.5 998.74s-2.875-3-4.875-4.25" stroke="#000" stroke-linecap="round" fill="none"/>
<path stroke-width=".8" d="m33.125 1019s-2 2.5-4 3" stroke="#000" stroke-linecap="round" fill="none"/>
</g>
</svg>
