<?xml version="1.0" encoding="UTF-8" standalone="no"?>
<svg version="1.1" xmlns:xlink="http://www.w3.org/1999/xlink" xmlns="http://www.w3.org/2000/svg" viewBox="0 0 530 45">
<defs>
<linearGradient id="a">
<stop offset="0" stop-color="#fff"/>
<stop offset="1"/>
</linearGradient>
<clipPath id="f" clipPathUnits="userSpaceOnUse">
<rect style="color:#000000" width="515" height="25" fill="url(#h)" opacity=".40265" ry="10" rx="5" x="2.5009" y="1017.4"/>
</clipPath>
<linearGradient id="h" x1="250" y1="1019.9" y2="1039.9" gradientTransform="translate(-8e-7 -.000060917)" gradientUnits="userSpaceOnUse" xlink:href="#a" x2="250"/>
<clipPath id="g" clipPathUnits="userSpaceOnUse">
<rect style="color:#000000" width="515" height="25" fill="url(#i)" opacity=".40265" ry="10" rx="5" x="2.5009" y="10"/>
</clipPath>
<linearGradient id="i" x1="250" y1="1019.9" y2="1039.9" gradientTransform="translate(-8e-7 -1007.4)" gradientUnits="userSpaceOnUse" xlink:href="#a" x2="250"/>
</defs>
<g transform="translate(0 -1007.4)">
<rect width="512.5" x="5" style="color:#000000" height="25" fill="#a8a8a8" y="1017.4"/>
<path clip-path="url(#g)" transform="translate(0 1007.4)" d="m417.5 10v25h100v-25z" fill="#363636"/>
<g clip-path="url(#f)" fill="#cdd11b">
<path d="m437.5 1017.4-20 20v5h5l25-25z"/>
<path d="m457.5 1017.4-25 25h10l25-25z"/>
<path d="m477.5 1017.4-25 25h10l25-25z"/>
<path d="m497.5 1017.4-25 25h10l25-25z"/>
<path d="m517.5 1017.4-25 25h10l15-15z"/>
<path d="m517.5 1037.4-5 5h5z"/>
</g>
<g transform="matrix(1 0 0 1.6667 -45 -686.58)" stroke="#00014e" stroke-width=".7746" fill="none">
<path transform="translate(0 1007.4)" d="m75 30v-15"/>
<path d="m100 1037.4v-15"/>
<path d="m125 1037.4v-15"/>
<path d="m150 1037.4v-15"/>
<path d="m175 1037.4v-15"/>
<path d="m200 1037.4v-15"/>
<path d="m225 1037.4v-15"/>
<path d="m250 1037.4v-15"/>
<path d="m275 1037.4v-15"/>
<path d="m300 1037.4v-15"/>
<path d="m325 1037.4v-15"/>
<path d="m350 1037.4v-15"/>
<path d="m375 1037.4v-15"/>
<path d="m400 1037.4v-15"/>
<path d="m425 1037.4v-15"/>
<path d="m450 1037.4v-15"/>
<path d="m475 1037.4v-15"/>
<path d="m500 1037.4v-15"/>
<path d="m525 1037.4v-15"/>
</g>
<path d="m417.5 1017.4v10l10-10z" fill="#cdd11b"/>
</g>
</svg>
