<?xml version="1.0" encoding="UTF-8" standalone="no"?>
<svg xmlns="http://www.w3.org/2000/svg" version="1.1" viewBox="0 0 530 45">
<defs>
<linearGradient id="a" x2="250" x1="250" y1="1019.9" gradientUnits="userSpaceOnUse" y2="1039.9" gradientTransform="matrix(.99515 0 0 1 2.5112 .000035183)">
<stop stop-color="#dfdfdf" offset="0"/>
<stop stop-color="#fff" offset=".25"/>
<stop stop-color="#c8c8c8" offset=".5"/>
<stop offset="1"/>
</linearGradient>
</defs>
<g transform="translate(0 -1007.4)">
<rect x="5" opacity=".33186" y="1017.4" width="512.5" style="color:#000000" fill="url(#a)" height="25"/>
<rect x="5" y="1017.4" stroke-width=".8" width="512.5" style="color:#000000" fill="none" stroke-linejoin="round" stroke-linecap="round" height="25" stroke="#222"/>
<g transform="matrix(.88462 0 0 .88249 252.34 79.03)">
<path fill="#fff" stroke-width="1.0186" d="m286.17 1078.6-15.733-9.7227s-2.6516 1.9446-3.5355 0.1768c-0.88388-1.7678 1.9445-3.5355 1.9445-3.5355s-1.4142-3.182 1.4142-2.4749 1.7678 2.8284 1.7678 2.8284l17.678 11.314 16.263-10.607s-1.2374-4.2426 1.2374-4.2426c2.4749 0 2.4749 3.3587 2.4749 3.3587s3.0052-1.2374 3.0052 1.7678-4.4194 1.591-4.4194 1.591l-14.849 10.076 13.612 7.2479s3.5355-1.9446 4.2426 0.8839c0.70711 2.8284-2.8284 2.298-2.8284 2.298s2.2981 3.3588-0.53033 3.3588-2.2981-3.5355-2.2981-3.5355l-15.733-8.1318-16.617 9.1924s2.1213 3.5356-0.53033 3.8891c-2.6516 0.3536-2.6516-3.0052-2.6516-3.0052s-3.3588-0.5303-1.7678-3.182c1.591-2.6516 3.182-0.3535 3.182-0.3535z" stroke="#000"/>
<path fill="#fff" stroke-width="1.0186" d="m280 1086.5v-9.1719s-4.7648-1.6539-4.7648-7.969 2.8028-8.5705 13.734-8.8713c10.931-0.3007 13.874 2.4058 14.154 7.9691 0.28028 5.5633-5.7458 8.8712-5.7458 8.8712l0.14014 9.3223z" stroke="#000"/>
<path fill="none" d="m283.5 1086.2 0.70071-4.8115" stroke-width="1.1318px" stroke="#000"/>
<path fill="none" d="m288.41 1086.5-0.84085-4.2101" stroke-width="1.1318px" stroke="#000"/>
<path fill="none" d="m293.03 1086.7-0.28028-4.5108" stroke-width="1.1318px" stroke="#000"/>
<path d="m279.44 1069.2c0.98099-2.2554 5.7458-3.9094 7.2874-1.9547s-1.5416 6.7662-4.2043 6.6158c-2.6627-0.1503-3.0831-4.6611-3.0831-4.6611z"/>
<path d="m298.28 1069.2c-0.98099-2.2554-5.7458-3.9093-7.2874-1.9546-1.5416 1.9546 1.5416 6.7661 4.2043 6.6158 2.6627-0.1504 3.0831-4.6612 3.0831-4.6612z"/>
<path d="m288.69 1074.7c-1.4014 0-3.3634 2.4058-2.1021 3.759s3.3634 1.6539 4.2043 0.1504c0.84085-1.5036-2.1021-3.9094-2.1021-3.9094z"/>
</g>
<g fill="none" opacity=".24336" stroke-width=".7746" transform="matrix(1 0 0 1.6667 -45 -686.58)" stroke="#00014e">
<path d="m75 30v-15" transform="translate(0 1007.4)"/>
<path d="m100 1037.4v-15"/>
<path d="m125 1037.4v-15"/>
<path d="m150 1037.4v-15"/>
<path d="m175 1037.4v-15"/>
<path d="m200 1037.4v-15"/>
<path d="m225 1037.4v-15"/>
<path d="m250 1037.4v-15"/>
<path d="m275 1037.4v-15"/>
<path d="m300 1037.4v-15"/>
<path d="m325 1037.4v-15"/>
<path d="m350 1037.4v-15"/>
<path d="m375 1037.4v-15"/>
<path d="m400 1037.4v-15"/>
<path d="m425 1037.4v-15"/>
<path d="m450 1037.4v-15"/>
<path d="m475 1037.4v-15"/>
<path d="m500 1037.4v-15"/>
<path d="m525 1037.4v-15"/>
</g>
</g>
</svg>
