<?xml version="1.0" encoding="UTF-8" standalone="no"?>
<svg version="1.1" viewBox="0 0 84 84" xmlns:xlink="http://www.w3.org/1999/xlink" xmlns="http://www.w3.org/2000/svg">
<g transform="translate(0 -968.36)">
<g stroke="#f10000" stroke-linejoin="round" stroke-linecap="round">
<path d="m28.875 999.86c1.8602 1.034 2.1227-1.2026 3.038-2.2315 0.95227-1.191 2.0063-2.3301 3.337-3.1435 2.0538-1.2723 4.3843-2.0174 6.6925-2.6256 2.3943-0.48676 4.8697-0.3629 7.3075-0.37438 1.7934 0.2285 3.5563 0.75891 4.8428 2.0761 1.0365 1.1107 1.7369 2.6049 1.6202 4.1477-0.23206 1.5595-1.3189 2.7744-2.465 3.742-1.4892 1.3342-3.1149 2.5598-4.782 3.698-1.0698 0.8345-2.3741 1.7733-3.4475 2.7501-1.2114 1.1081-2.4991 2.3153-3.044 3.8971-0.35 1.3867-0.87311 2.7424-0.76281 4.2105-0.25966 1.809-0.03383 3.5988 0.34981 5.3661 0.23729 0.688 0.39883 1.3726 0.4387 2.1124" fill="none" stroke-width="4"/>
<path stroke-width="2.4" transform="translate(1.375 966.55)" style="color:#000000" d="m42 66.938a1.3125 1.3125 0 1 1 -2.625 0 1.3125 1.3125 0 1 1 2.625 0z"/>
</g>
</g>
</svg>
