<?xml version="1.0" encoding="UTF-8" standalone="no"?>
<svg viewBox="0 0 84 84" xmlns="http://www.w3.org/2000/svg" version="1.1">
<g transform="translate(0 -968.36)">
<g stroke="#000">
<path fill="#e8f094" style="color:#000000" stroke-width=".53333" d="m47.25 42a5.25 5.25 0 1 1 -10.5 0 5.25 5.25 0 1 1 10.5 0z" transform="matrix(1.5 0 0 1.5 -21 947.36)"/>
<path fill="none" stroke-width="2" d="m38.935 45.374c2.1655 0.7955 5.2244 1.0244 5.7452-0.97227 0.26516-1.0165-0.30936-1.7678-0.7513-2.0771-0.44194-0.30936-2.7842-0.53033-2.7842-0.53033s1.9887-0.35355 2.6958-0.88388c0.70711-0.53033 1.2141-1.3816 0.48614-2.1655-1.7236-1.8562-4.9939-0.17678-4.9939-0.17678" transform="translate(0 968.36)" stroke-linejoin="round"/>
</g>
</g>
</svg>
