<?xml version="1.0" encoding="UTF-8" standalone="no"?>
<svg viewBox="0 0 84 84" xmlns="http://www.w3.org/2000/svg" version="1.1">
<g transform="translate(0 -968.36)">
<g stroke-width=".8">
<path fill="#11aa1c" d="m39.598 1017.5c3.0052 6.7175 7.7782 10.076 5.8336 14.319-1.9445 4.2426 0.35355 8.3085 1.4142 9.7227 1.0607 1.4142 2.6516 0.8839 2.6516 0.8839s0.53033-3.3588 0.17678-6.1872 3.3588-4.9497 0.53033-10.076c-2.8284-5.1265-6.0104-12.198-6.0104-12.198s6.5407 1.7677 11.314 0.5303c4.773-1.2374 9.1924-7.6014 10.253-10.253 1.0607-2.6516-1.4142-9.8995-1.4142-9.8995s-3.182 6.0105-3.5355 8.6621c-0.35355 2.6517-3.7123 4.5962-6.5407 5.6569-2.8284 1.0606-9.0156-0.8839-9.0156-0.8839s-4.2426-6.8943-8.3085-8.8389-7.7782 3.5356-11.667 2.6517c-3.8891-0.8839-9.5459-4.5962-9.5459-4.5962s0.88388 7.4246 8.1317 8.4853c7.2478 1.0606 9.8995-2.2981 11.49-0.8839 1.591 1.4142 4.2426 12.905 4.2426 12.905z" stroke="#000"/>
<path fill="none" d="m47.553 1038s-0.35355-3.0052 0.70711-5.3033 0.17678-5.1265-1.2374-7.4246-5.6569-11.137-5.6569-11.137" stroke="#cff9d8"/>
<path fill="none" d="m63.109 1003s-1.9445 4.9497-6.0104 7.4246-13.081 0.1768-13.081 0.1768" stroke="#cff9d8"/>
<path fill="none" d="m22.804 1002.9s3.182 1.2375 7.2478 0.1768c4.0659-1.0607 6.1872-3.182 8.1317-0.1768s2.1213 5.1265 2.1213 5.1265" stroke="#cff9d8"/>
</g>
<g stroke-width=".8">
<path fill="#10a01b" d="m34.471 1012.1c-3.5355 3.7123-7.955 9.0156-10.96 8.8388-3.0052-0.1767-6.8943 1.591-6.8943 1.591s5.3033 4.2427 8.3085 3.5356 8.1317-2.6517 14.496-9.3692" stroke="#000"/>
<path fill="none" d="m23.335 1023.4s4.9497-0.3535 7.6014-2.2981c2.6516-1.9445 6.0104-6.3639 6.0104-6.3639" stroke="#cff9d8"/>
</g>
<g transform="translate(-.53033 1.9445)" stroke-width=".8">
<path fill="#1ce82b" d="m39.421 1011s-3.5355 5.6568-5.1265 10.076c-1.591 4.4194 3.7123 9.3692 0.35355 11.314-3.3588 1.9446-5.1265 4.773-5.1265 4.773s4.773 1.0607 7.7782-0.8839c3.0052-1.9445 4.2426-6.3639 3.3588-8.8388-0.88388-2.4749-2.2981-8.1317 5.8336-18.738" stroke="#000"/>
<path fill="none" d="m40.659 1011.7s-3.3588 6.8943-3.5355 10.253c-0.17678 3.3588 3.3588 7.0711 0.70711 10.253" stroke="#cff9d8"/>
</g>
<g transform="translate(-.35355 .35355)" stroke-width=".8">
<path fill="#1ae828" d="m38.184 1006.4s-2.2981-5.1266-3.7123-8.3086 0.70711-7.4246 0.35355-9.0156c-0.35355-1.591-1.591-6.5407-1.591-6.5407s5.3033 1.0607 6.1872 3.7123c0.88388 2.6517-0.53033 6.5407 0.70711 10.607 1.2374 4.0659 4.2426 8.3085 4.2426 8.3085" stroke="#000"/>
<path fill="none" d="m41.189 1005.5s-2.6517-3.8891-3.3588-6.5408c-0.70711-2.6516-0.70711-6.8943-0.53033-8.4853s-1.7678-5.4801-1.7678-5.4801" stroke="#cff9d8"/>
</g>
<g transform="translate(-2.1213 .70711)" stroke-width=".8">
<path fill="#61ef6b" d="m42.603 1002.2s-1.0607-7.9549 2.8284-12.021c3.8891-4.0659 11.314-4.2426 11.314-4.2426s-1.9445 3.5355-4.0659 4.5962c-2.1213 1.0607-4.4194 3.182-5.4801 6.5407-1.0607 3.3588-0.53033 7.0711-0.53033 7.0711s4.2426-3.3588 8.6621-3.182c4.4194 0.1768 5.6569 6.3639 9.5459 7.4246 3.8891 1.0607 11.49-1.2374 11.49-1.2374s-3.3588 6.8943-7.955 6.8943-9.8995-6.364-13.081-6.5408c-3.182-0.1768-7.6014 2.6517-7.6014 2.6517s1.591 5.8336 3.5355 7.2478 7.6014 4.4194 7.6014 4.4194-5.1265 2.8285-9.3692-0.3535c-4.2426-3.182-7.2478-10.076-7.2478-10.076s-4.4194 5.3033-9.7227 6.364c-5.3033 1.0606-13.435-1.2375-15.733-3.5356-2.2981-2.2981-9.8995-5.48-9.8995-5.48s6.8943-2.4749 10.607 0c3.7123 2.4748 10.43 5.4801 16.263 3.182 5.8336-2.2981 4.773-7.4247 4.773-7.4247z" stroke="#000"/>
<path fill="none" d="m40.128 1009.4s-1.7678 4.7729-7.2478 5.48c-5.4801 0.7071-15.556-2.1213-18.385-5.3033" stroke="#cff9d8"/>
<path fill="none" d="m45.078 1010.3s3.3588 8.6621 5.8336 9.546" stroke="#cff9d8"/>
<path fill="none" d="m47.73 1006.6s4.9497-3.5355 8.1317-2.2981c3.182 1.2375 6.8943 7.2479 11.314 6.8943" stroke="#cff9d8"/>
<path fill="none" d="m44.548 1004.3s-0.70711-7.6014 1.4142-10.607c2.1213-3.0052 6.0104-4.9498 6.0104-4.9498" stroke="#cff9d8"/>
</g>
<path d="m39.952 41.397s-2.6516-1.7678-5.4801-4.2426c-2.8284-2.4749-4.5962-8.3085-4.5962-8.3085s5.6569 2.6516 7.6014 4.4194 4.5962 5.1265 4.5962 5.1265" fill="#86f38e" transform="translate(0 968.36)" stroke-width=".8" stroke="#000"/>
<path d="m40.482 38.922s-5.4801-3.7123-6.364-5.6569" fill="none" transform="translate(0 968.36)" stroke-width=".8" stroke="#cff9d8"/>
</g>
</svg>
