<?xml version="1.0" encoding="UTF-8" standalone="no"?>
<svg viewBox="0 0 84 84" version="1.1" xmlns="http://www.w3.org/2000/svg">
<g transform="translate(0 -968.36)">
<path stroke-width=".6" fill="#b4b4b4" d="m76.125 1018.2c-2.1933-0.7134-4.2805-1.9002-3.0481-4.5628-3.8796-0.6239-3.7146-5.501-6.5218-6.9033-2.1543 0.3339-7.9218 1.2964-6.6238-2.4949-1.1687-2.1275-1.8038-5.1028-4.3232-6.2869-2.3323 0.2093-5.7133-1.5535-3.1146-3.9013-0.38471-1.8223-2.8643-3.0079-4.1466-4.3942-3.1624 1.8677-2.5122-3.7502-3.7219-5.5816-2.1422 0.4061-3.8755-1.1741-5.25-2.625-2.4681 1.2486-4.3729 6.8722-4.6273 9.1748-2.1296 2.1104-5.0277-1.2989-6.888 1.8488-1.4855 1.0537 0.79279 2.9968-1.7552 3.5925 0.18062 4.0707-7.6181 1.8743-6.0207 5.7191 0.71091 2.471-2.8819 3.314-3.5298 5.4531-2.0002 0.3446-6.9427 2.5922-2.8308 4.0612 2.4866 0.8408-1.3866 4.5642 2.4285 4.3524 2.5462 1.4701 7.3087-0.9133 7.8101 3.1725-2.9282 3.0992 3.8639 3.4088 2.9272 6.9851 0.48544 2.1017 3.0472 2.0815 3.4498 0.1765 3.231-0.5718 4.4367 4.2299 6.9459 5.4753-0.42151 2.8399 6.2501 2.9524 2.2167 5.5666 0.10302 2.4169 4.5154 5.4265 6.4253 2.6689 3.166-1.9426-0.19916 5.0576 3.9485 4.7532" stroke="#a7a7a7" stroke-linecap="round"/>
<path stroke-width=".8" fill="none" d="m76.125 1018.2c-2.1933-0.7134-4.2805-1.9002-3.0481-4.5628-3.8796-0.6239-3.7146-5.501-6.5218-6.9033-2.1543 0.3339-7.9218 1.2964-6.6238-2.4949-1.1687-2.1275-1.8038-5.1028-4.3232-6.2869-2.3323 0.2093-5.7133-1.5535-3.1146-3.9013-0.38471-1.8223-2.8643-3.0079-4.1466-4.3942-3.1624 1.8677-2.5122-3.7502-3.7219-5.5816-2.1422 0.4061-3.8755-1.1741-5.25-2.625-2.4681 1.2486-4.3729 6.8722-4.6273 9.1748-2.1296 2.1104-5.0277-1.2989-6.888 1.8488-1.4855 1.0537 0.79279 2.9968-1.7552 3.5925 0.18062 4.0707-7.6181 1.8743-6.0207 5.7191 0.71091 2.471-2.8819 3.314-3.5298 5.4531-2.0002 0.3446-6.9427 2.5922-2.8308 4.0612 2.4866 0.8408-1.3866 4.5642 2.4285 4.3524 2.5462 1.4701 7.3087-0.9133 7.8101 3.1725-2.9282 3.0992 3.8639 3.4088 2.9272 6.9851 0.48544 2.1017 3.0472 2.0815 3.4498 0.1765 3.231-0.5718 4.4367 4.2299 6.9459 5.4753-0.42151 2.8399 6.2501 2.9524 2.2167 5.5666 0.10302 2.4169 4.5154 5.4265 6.4253 2.6689 3.166-1.9426-0.19916 5.0576 3.9485 4.7532" stroke="#000" stroke-linecap="round"/>
<path fill="#828282" d="m34.125 1013c-0.76984 0.1768-1.8082 0.8655-2.4069-0.01-0.55046-0.455-1.2329-0.7537-1.6583-1.3273-0.57564-0.4562-1.1663-1.1713-1.2178-1.9619-0.11885-0.9051-1.0319-1.2134-1.6775-1.6335-0.56727-0.7488-0.28982-1.7421 0.09333-2.5043 0.32676-0.7676 1.071-1.6874 2.0109-1.4132 0.68426-0.02 1.0043 1.4933 1.5608 0.5101 0.82267-1.0226 1.3507-2.2523 2.1152-3.3168 0.7667-0.9638 2.1536-0.9716 3.2572-0.7573 0.86497 0.2938 1.6845 1.3198 1.1864 2.2387-0.56217 0.7098-0.73558 1.7277 0.23197 2.187 0.73849 0.5146 1.6708 0.6613 2.3407 1.2913 0.88823 0.4343 0.72371 1.572 0.61445 2.3841-0.49131 0.6276-1.6873 0.9193-1.5755 1.9921-0.20847 0.9733 0.37118 1.8373 0.45714 2.7756 0.34248 0.8802-0.15061 1.7924-0.92118 2.2409-0.74527 0.5126-1.427 1.3371-2.4494 1.0805-0.88118-0.2705-1.8252-0.2064-2.6964 0.09-0.70115 0.4874-2.1966 0.3558-1.9329-0.7966 0.30248-0.8974 1.5738-0.4542 2.0471-1.173 0.63786-0.4781 0.49338-1.2261 0.62089-1.8976z"/>
<path fill="#828282" d="m59.375 1028.6c-0.4967 0.4602-1.4507 0.1268-2.1308 0.2614-1.242-0.1367-1.1722-1.5291-0.35039-2.1519 0.80538-0.9026-0.10979-1.6147-0.52212-2.3491-0.34855-1.3047 1.3978-2.0433 1.1186-3.3438-0.53707-0.9055-1.423-1.7555-2.4903-1.9811-1.6218-0.043-3.0546-1.1497-3.9034-2.4708-0.21986-1.4218-2.0021 0.025-2.4189-1.1197 0.0066-0.8082-0.51058-2.5061 0.78594-2.4773 0.82608 0.1135 1.6785 0.011 2.202-0.701 1.0851-0.7938 2.2208-1.6199 2.8344-2.8564 1.0541-0.5325 1.5674 0.9416 2.1544 1.5184 0.10507 0.8795-0.04111 2.2047 1.2144 2.2931 1.1313-0.092 1.899 0.5888 2.0739 1.67 0.25039 1.074 0.98226 1.6606 1.5623 2.535 0.79208 0.8053 1.135 1.8237 1.3818 2.9048 0.46862 1.0817 1.7639 1.5609 2.0964 2.7117-0.31038 1.0061-1.2542 1.6326-1.725 2.5567-0.6908 0.6887-1.01 1.6025-1.483 2.4295-0.40146 0.9181-1.7019 1.5396-2.4001 0.5705z"/>
</g>
</svg>
