<?xml version="1.0" encoding="UTF-8" standalone="no"?>
<svg version="1.1" viewBox="0 0 84 84" xmlns="http://www.w3.org/2000/svg">
<g transform="translate(0 -968.36)">
<path d="m34.125 976.24c0.56454 0.1222 1.1486 0.8215 1.8067 1.6461-0.04478 0.741 0.10521 1.4576 0.37928 2.1456 0.33442 0.6447 0.68142 1.5419 1.5256 1.5944 0.67899 0.027 1.3657-0.098 2.0357 0.086 0.82456 0 1.1556 0.947 1.9179 1.1102 0.68635 0.3396 1.5625 0.08 2.1611 0.595 0.55031 0.6999 1.4545 0.3875 2.2117 0.4513 0.77439-0.1189 1.2974-0.94 1.4206-1.6695 0.0277-1.091-0.40081-2.2225 0.00041-3.2902 0.33515-0.634-0.45767-1.6054 0.56428-1.8078 0.56332-0.2438 1.3808-0.3124 1.7267-0.8611l34.125 34.125-42 42-42-42z" stroke-width=".6" stroke="#b4b4b4" fill="#b4b4b4"/>
<path d="m34.125 976.24c0.56454 0.1222 1.1486 0.8215 1.8067 1.6461-0.0448 0.741 0.10521 1.4576 0.37928 2.1456 0.33442 0.6447 0.68142 1.5419 1.5256 1.5944 0.67899 0.027 1.3657-0.098 2.0357 0.086 0.82456 0 1.1556 0.947 1.9179 1.1102 0.68635 0.3396 1.5625 0.08 2.1611 0.595 0.55031 0.6999 1.4545 0.3875 2.2117 0.4513 0.77439-0.1189 1.2974-0.94 1.4206-1.6695 0.0277-1.091-0.40081-2.2225 0.00041-3.2902 0.33515-0.634-0.45767-1.6054 0.56428-1.8078 0.56332-0.2438 1.3808-0.3124 1.7267-0.8611" stroke-linecap="round" stroke="#000" stroke-width=".8" fill="none"/>
<path d="m13.625 1014.4c-1.5902-0.8077-4.025-2.8003-2.7511-4.8963-0.38853-2.5171 1.1974-4.1724 3.2386-5.3816 0.12566-1.3793-0.28497-2.5021 1.2248-3.464-0.19028-2.0008 2.275-5.5611 3.0922-2.0794 0.43839 3.6468 1.25-2.6372 3.3382-1.9659 3.5861-0.5373-1.1188 5.1748 2.8267 3.9222 1.8455-0.493 2.1451 2.2438 0.13312 2.0515-2.1299 0.8226-2.3813 3.9267-0.55179 5.2308 1.286 1.9873-1.156 4.0412 0.55621 6.0351 0.18842 2.9743-4.003 3.9177-5.607 1.5476-1.9759-0.788-1.4833-3.5061-2.5446-4.4767-1.3847 0.6415-3.5296 1.5783-2.9554 3.4767z" fill="#828282"/>
<path d="m37.75 1014.1c-0.12585-2.5532 1.8968-4.2413 4.1584-2.5082 2.106-0.1383 4.5393 0.3429 4.1992 3.0656 0.48917 1.7342 2.5474 2.9981 0.77548 4.8234-0.94599 1.2862 0.40697 5.4716-2.1331 3.2442-3.0028-1.0688-2.3949-5.824-5.75-5.875-1.2377-0.867-2.2706-1.076-1.25-2.75z" fill="#828282"/>
<path d="m39.5 1038.1c-1.2127-1.7262-0.72071-5.1388-3.6935-5.2812-3.2497-0.4846-0.89938-4.3856 1.4331-3.8253 1.6419 0.6611 1.9702 3.0598 4.075 3.2309 1.6349 0.7647 4.0386 4.7561 0.95572 4.898-1.8476-0.8917-1.3476 1.7412-2.7703 0.9776z" fill="#828282"/>
<path d="m63 994.74c-2.8215-0.3615-4.3293 1.5995-6 3.375-2.1819 1.5077-5.3007 0.01-6.0346-2.3371-1.2312-2.3018-4.2696-4.2399-6.5248-1.98-1.1116 2.376 3.3507 2.1862 2.905 4.9316 1.0003 2.7117 3.3762 3.8492 6.1814 3.5722 2.8063-0.4098 0.44261 4.7005 3.1245 3.4457 1.6883-1.5381 3.1338-3.7798 5.1352-4.7369 3.071 0.064 1.738-3.7716 2.4031-5.6342-0.284-0.4-0.806-0.41-1.189-0.64z" fill="#828282"/>
</g>
</svg>
