<?xml version="1.0" encoding="UTF-8" standalone="no"?>
<svg viewBox="0 0 84 84" xmlns="http://www.w3.org/2000/svg" version="1.1">
<g transform="translate(0 -968.36)">
<g transform="translate(-189,-63)">
<path d="m189 1073.4 42-42 42 42-42 42z" fill="#b4b4b4" stroke-width=".4" stroke="#b4b4b4"/>
<path d="m204.88 1065.3c-0.042-1.4612 0.53312-2.8708 1.4646-3.3595 0.10255-0.5461 1.3534-0.8972 1.7174-1.4135 0.33509-0.6777 0.73348-1.3694 1.0607-2.1213 0.71015-1.2541 3.6188 0.3557 4.5962-0.7071 0.44487-0.52 1.1004-1.0022 1.4142-1.591 0.64677-0.4728 1.0076-1.2315 1.4142-1.9445 0.94726-0.4133 1.9233-2.0172 1.9446 0.3535-0.0721 0.9823 1.8034 2.0709 2.2981 0.8839 0.60545-0.5141 0.92005-1.3191 1.7678-1.591 1.8805-0.2715 2.1444 0.9521 2.4955 2.1213-0.65725 1.0895-0.76609 3.0621-0.0206 3.8891 0.64345 0.3048 1.0622 1.1602 1.4142 1.591 0.61005 0.5258 0.9381 1.5685 1.4142 2.2981 1.1117 0.6645 1.0003 4.0724-0.97228 2.4749-1.172-0.8796-2.5489-0.5704-2.2097 1.2374 0.10125 1.7838-1.4153 2.0064-2.8284 2.2981-0.93965 0.3046-0.59209 2.111-1.591 2.2981-0.82339 0.386-0.45144 1.8776-1.0607 2.4749-0.52654 0.8034-1.4788 1.9711-3.182 1.7678-0.85341-0.6004-2.5352-0.545-2.2981-2.1214-0.49184-1.9479 1.0044-1.977 0.88389-3.5355 0.67474-1.0075-0.70973-1.9808-1.591-2.1213-0.99418-0.8651-2.1836-0.057-2.8284 0.5303-0.50079 0.6796-1.35 1.0082-1.7678 1.591-1.3479-0.022-1.1689 0.9986-1.7678 1.7678-0.32323 0.7533-0.9265 1.4581-2.1135 1.4165-1.7668 0.3214-1.9974-0.7479-2.6098-1.6541-0.63794-0.9082-0.19704-1.9602 1.011-2.0605 0.82288-0.2808 0.64915-1.4845 1.4142-1.7678 1.1271 0.022 1.899-1.6759 0.90667-2.5348-0.12545-0.1568-0.25089-0.3136-0.37634-0.4704z" fill="#828282"/>
<path d="m225.39 1101.3c-0.1205-1.6162-1.3784-3.6987-0.35357-4.9497 0.19376-0.8017 0.45598-2.8519-0.17676-3.5355-0.3189-0.9279-1.2464-1.0307-1.9446-1.591-1.1392-0.4057-2.1751-0.928-2.2981-2.1213 0.0561-1.2888 0.84812-1.8682 1.4142-2.6517 0.21973-0.7774 2.326-0.6981 2.6516 0.1768 0.5231 0.3269 1.1857 0.905 1.9445 1.2374 0.70689 0.982 1.7663 1.0124 3.2455 1.2678 1.4504-0.066 2.9074-0.011 4.3559-0.03 0.21862-1.1619 1.9429-1.1007 2.1213 0 0.43229 1.7024 0.45655 3.407-1.6222 2.9922 0.0737 1.5883 0.008 3.2026 0.0312 4.7859 0.48176 0.8146 0.81955 1.7732 1.2374 2.6517 0.27672 1.5719-1.282 1.3115-1.7678 2.1213-0.98716 0.2682-1.6159 0.8333-1.7953 1.9523 0.96415 1.5133-0.10976 3.2172-1.5635 1.0529-0.37806-0.5458-0.76439-1.2997-1.0607-2.1213-0.30588-0.9962-0.11423-3.9807-1.2374-3.0052-0.53644 0.701-1.4558 1.019-1.9446 1.7677-0.34888 0.5529-0.38042 0.6493-1.2374 0z" fill="#828282"/>
<path d="m250.85 1083.1c-1.2572-0.8033-1.1529-1.0601-1.9445-1.7677-0.30901-0.5542-1.3622-2.6537-0.17678-3.0052 1.1445 0.044 2.48-0.1316 3.3588 0.1768 1.1856-0.07 1.5934-1.1103 2.6516-1.4143 0.91928-0.4722 1.6996-0.8654 3.0032-0.7071 1.3402 0.032 2.0638-0.4414 3.2723-0.5303 1.3651-1.3076 1.4772 1.5359 0.61871 1.7678-0.33243 0.8379-1.2654 1.3158-1.4142 1.9445-0.91008 0.5115-1.5873 0.8683-2.1213 1.591-0.50806 0.6705-1.1765 1.1805-1.7678 1.7678-0.33064 1.027-1.2085 1.8437-1.2374 3.182 0.14503 1.5126-2.561 1.3269-3.0052 0.3535-0.68159-0.3945-1.2639-0.6331-0.88389-1.7678 0.95299-0.3171-0.10802-0.9233-0.35355-1.591z" fill="#828282"/>
<path d="m243.42 1050.1c-0.40009-0.8859-1.814-0.5699-3.0052-1.2374-1.7597 0.4406-2.1289-0.8569-3.0052-1.0607-0.1792-0.6616-1.0335-1.0623-1.4142-1.7678-0.45816-0.8482-1.1633-0.9579-1.7678-1.591-0.88347-0.432-2.1046-1.1074-3.182-0.3535-0.0362 1.095-1.3938 1.584-0.8831 2.8788 0.30568 0.3672 1.3892 0.765 1.5902 1.5406 1.3883 0.3705-0.32713 2.7221 0.35355 3.7123 0.58562 0.534 1.0997 1.1395 1.7678 1.591 0.65416 0.4654 1.3502 0.889 1.9446 1.4142 1.016 0.3523 1.5959 0.5957 1.9446 1.591 0.89498 1.1042 0.96981 3.0755 1.2374 4.5962-0.42921 0.6973-0.0322 2.1605-0.19699 3.1604-1.099 1.9731 3.2922 1.909 3.2022 0.5519 0.16667-0.9529 0.79957-1.4396 1.591-1.7677 1.5931-0.3086 3.1684 0.1498 3.5356-1.4143-0.0744-1.112 2.5586-1.2447 3.0052-0.5303 1.4835 0.6678 0.37981-1.6195-0.17678-2.2981-0.24003-1.3068 0.40244-3.5574-0.88389-4.2426-0.41604-0.7239-1.509-0.7117-2.1213-1.2375-0.74152-0.6376-1.6855-0.6418-1.9445-1.591-0.42664-0.4012-1.2178-1.0238-1.591-1.9445z" fill="#828282"/>
</g>
</g>
</svg>
