<?xml version="1.0" encoding="UTF-8" standalone="no"?>
<svg version="1.1" xmlns="http://www.w3.org/2000/svg" viewBox="0 0 84 84">
<g transform="translate(0 -968.36)">
<path d="m49.875 976.24c-0.65825 0.60628-1.4504 1.1978-2.311 1.449-0.53479-0.29838-0.85798 0.62974-0.84299 1.0644-0.14637 0.93634-0.27662 1.8776-0.54748 2.7872-0.15527 0.7317-0.09757 1.5727-0.57791 2.1886-0.6703 0.62686-1.6701 0.44275-2.4678 0.21549-0.89163-0.13851-1.7758 0.14344-2.67 0.13804-0.59137 0.002-1.1836 0.14458-1.7708 0.0928-0.74594-0.20353-0.7772-1.1302-0.66438-1.7574 0.26897-0.66243-0.02277-1.3755 0.16328-2.0454 0.21132-0.74745 1.3761-0.57967 1.5403-1.2964-0.33396-0.54073-1.0562-0.6343-1.5994-0.88382-0.63954-0.18418-1.1632-0.59599-1.6954-0.96347-0.76892-0.29866-1.8608-0.0491-2.3064-0.98909l-26.25 26.25c-0.0895 0.3487 0.79557 1.1464 1.3118 2.0263 0.60129 0.5746 1.4926 0.3097 2.1786 0.064 0.87817-0.223 1.7406 0.6819 1.5104 1.5491 0.0387 0.7378 0.72809 1.5745 0.007 2.2017-0.28949 0.807 0.86429 0.9386 1.2877 1.3723 0.36065 0.3982 1.5825 0.6927 0.95645 1.3554-0.78684 0.2378-1.1494 1.1362-2.0349 1.0962-0.7893-0.01-1.5985-0.01-2.3368-0.3248-0.69341-0.2663-1.7984-0.6762-2.1812 0.2638-0.39419 0.7216 0.31982 1.3367 0.34424 2.0399 0.0289 0.639-0.60906 0.9787-0.8439 1.5202-0.29318 0.5411-0.30875 1.9496-0.19964 2.5859l34.125 34.125 42-42z" stroke-width=".6" stroke="#a7a7a7" stroke-linecap="round" fill="#b4b4b4"/>
<path d="m49.875 976.24c-0.65825 0.60628-1.4504 1.1978-2.311 1.449-0.53479-0.29838-0.85798 0.62974-0.84299 1.0644-0.14637 0.93634-0.27662 1.8776-0.54748 2.7872-0.15527 0.7317-0.09757 1.5727-0.57791 2.1886-0.6703 0.62686-1.6701 0.44275-2.4678 0.21549-0.89163-0.13851-1.7758 0.14344-2.67 0.13804-0.59137 0.002-1.1836 0.14458-1.7708 0.0928-0.74594-0.20353-0.7772-1.1302-0.66438-1.7574 0.26897-0.66243-0.02277-1.3755 0.16328-2.0454 0.21132-0.74745 1.3761-0.57967 1.5403-1.2964-0.33396-0.54073-1.0562-0.6343-1.5994-0.88382-0.63954-0.18418-1.1632-0.59599-1.6954-0.96347-0.76892-0.29866-1.8608-0.0491-2.3064-0.98909" stroke-width=".8" stroke="#000" stroke-linecap="round" fill="none"/>
<path d="m7.875 1002.5c-0.0895 0.3487 0.79557 1.1464 1.3118 2.0263 0.60129 0.5746 1.4926 0.3097 2.1786 0.064 0.87817-0.223 1.7406 0.6819 1.5104 1.5491 0.0387 0.7378 0.72809 1.5745 0.007 2.2017-0.28949 0.807 0.86429 0.9386 1.2877 1.3723 0.36065 0.3982 1.5825 0.6927 0.95645 1.3554-0.78684 0.2378-1.1494 1.1362-2.0349 1.0962-0.7893-0.01-1.5985-0.01-2.3368-0.3248-0.69341-0.2663-1.7984-0.6762-2.1812 0.2638-0.39419 0.7216 0.31982 1.3367 0.34424 2.0399 0.0289 0.639-0.60906 0.9787-0.8439 1.5202-0.29318 0.5411-0.30875 1.9496-0.19964 2.5859" stroke-width=".8" stroke="#000" stroke-linecap="round" fill="none"/>
<path d="m23.25 1007.4c0.0361-0.4303-2.9117-3.1452-0.55194-4.5051 1.9602-1.8516-1.5249-3.2775-0.59424-5.1162 1.6656-2.0884 4.6785-1.5458 6.6735-0.29219 1.525 0.61808 1.1448 3.848 3.6462 3.1545 2.0574-0.4524 4.2336 3.3155 1.9923 4.2298-2.1672 0.7676-4.4071 2.5019-5.1471 4.8604-0.30681 1.784-3.9769 2.5588-4.2424 0.3487 0.50145-1.6241-0.83079-1.592-1.9013-2.0549z" fill="#828282"/>
<path d="m51.75 987.86c-0.10149 0.15825-2.4393 1.6758-3.6792 2.6548-0.31078 2.0845 2.6546 3.0493 1.0326 5.2829-0.79809 1.8654-1.5803 4.7841 1.523 4.7485 1.6698-1.9116 3.8391 1.7645 5.4423 0.737 1.9128-2.0289 3.4698 2.3148 5.6332 1.1615 3.2716-0.319 0.12552-3.3794-1.1893-4.2245-2.22-1.5683 0.80786-3.3892 0.63698-5.3066-1.3774-1.8347-2.9916-4.5835-5.72-3.8825-1.3856 0.19517-2.5278-0.55133-3.6796-1.1711z" fill="#828282"/>
<path d="m46 1034.2c-0.6268-0.3831-1.908-3.3033-3.5917-3.9536-1.5525 0.2055-3.5758 0.5637-3.6361-1.6518-1.4395-2.0042-4.2333-2.6435-5.6908-4.5132 0.28975-1.4143 1.0842-2.8849-0.48259-3.9514-0.31016-2.4285 2.7908-3.2505 4.3917-4.3426 2.3434-0.6164 4.7912-1.734 5.7735-4.0878 1.4241 0.7743 4.18 4.0838 1.0865 4.7159-1.7675 0.6551-5.8165 2.5133-3.3979 4.6005 0.0083 1.5184 0.16319 3.3204 2.2874 2.924 1.8887 0.098 5.5279-2.0535 5.3963 1.4567-0.9742 2.6539 2.7527 3.4868 2.2813 6.1659 0.96456 2.8698-2.5666 3.0166-4.4176 2.6374z" fill="#828282"/>
</g>
</svg>
