<?xml version="1.0" encoding="UTF-8" standalone="no"?>
<svg viewBox="0 0 84 84" xmlns="http://www.w3.org/2000/svg" version="1.1">
<g transform="translate(0 -968.36)">
<path fill="#b4b4b4" d="m76.125 1018.2c-1.844-0.5496-0.40442-2.7021-2.0764-2.533-0.38934-1.8932 0.43679-4.6261-2.0992-5.0607-0.59172-1.0689-2.8625 0.1029-3.853-0.6169-1.0976-0.7977-0.93643-3.4624-1.9814-4.1742-2.361 0.9443-2.8968-2.2414-2.9963-3.7931 2.1279-1.4053-3.1954-1.5939-3.3105-3.634 0.69798-2.3951-1.5815-4.3026-3.9874-3.7253-2.9202-0.84774-3.7316-4.3826-7.2118-4.0063-1.9007 0.21421-3.6222-0.9232-1.8001-2.5817 0.90561-1.7971-2.5788-2.4992-0.6665-4.2714 0.13812-1.2307-1.1262-3.0797-1.9736-3.6871-2.1732 0.81791-6.1389-1.2226-6.9925 1.8658 1.444 1.8857-0.42338 3.5419-2.0701 3.8214-2.6383 0.85933-1.2212 4.1408-4.075 4.6831-2.8974 1.2346-1.703 4.3919-2.1561 6.776-2.6346-0.23428-3.3071 4.0021-5.9788 2.3126-1.5004-0.71737-5.899-0.5617-5.0875 1.3403 1.0947-0.025 3.8467 0.8427 1.3609 2.0018-1.869 1.7548-4.1262 2.9868-6.3176 3.3498 0.06874 1.8463 0.0065 3.3716-2.1692 3.7406-2.8927 0.9699-2.3886 4.1918-1.1211 6.3584-0.16078 0.6273-1.2378 1.6839-1.6867 1.834l34.125 34.2z" stroke-width=".6" stroke-linecap="round" stroke="#b4b4b4"/>
<path fill="none" stroke-width=".8" d="m76.125 1018.2c-1.844-0.5496-0.40442-2.7021-2.0764-2.533-0.38934-1.8932 0.43679-4.6261-2.0992-5.0607-0.59172-1.0689-2.8625 0.1029-3.853-0.6169-1.0976-0.7977-0.93643-3.4624-1.9814-4.1742-2.361 0.9443-2.8968-2.2414-2.9963-3.7931 2.1279-1.4053-3.1954-1.5939-3.3105-3.634 0.69798-2.3951-1.5815-4.3026-3.9874-3.7253-2.9202-0.84774-3.7316-4.3826-7.2118-4.0063-1.9007 0.21421-3.6222-0.9232-1.8001-2.5817 0.90561-1.7971-2.5788-2.4992-0.6665-4.2714 0.13812-1.2307-1.1262-3.0797-1.9736-3.6871-2.1732 0.81791-6.1389-1.2226-6.9925 1.8658 1.444 1.8857-0.42338 3.5419-2.0701 3.8214-2.6383 0.85933-1.2212 4.1408-4.075 4.6831-2.8974 1.2346-1.703 4.3919-2.1561 6.776-2.6346-0.23428-3.3071 4.0021-5.9788 2.3126-1.5004-0.71737-5.899-0.5617-5.0875 1.3403 1.0947-0.025 3.8467 0.8427 1.3609 2.0018-1.869 1.7548-4.1262 2.9868-6.3176 3.3498 0.06874 1.8463 0.0065 3.3716-2.1692 3.7406-2.8927 0.9699-2.3886 4.1918-1.1211 6.3584-0.16078 0.6273-1.2378 1.6839-1.6867 1.834" stroke="#000" stroke-linecap="round"/>
<path fill="#828282" d="m26.25 1026.1c-0.45084-0.8096-1.2888-1.6216-0.99352-2.6308 0.32143-0.9526-0.5533-1.5682-1.4176-1.5003-0.87404-0.048-1.668-0.3674-2.3255-0.9355-0.77871-0.4733-1.4916-1.0482-2.2115-1.6048-0.62276-0.5085-1.038-1.333-0.71067-2.1362 0.2986-0.762 0.95036-1.3578 1.0521-2.1995 0.21487-0.8779 1.2861-1.1865 2.0125-0.744 0.69018 0.4036 0.88086 1.2224 1.4289 1.6988 0.46738-0.3688 0.91534-0.9811 1.42-1.4159 0.67615-0.323 1.5664-0.4447 2.2773-0.094 0.89931-0.023 1.2981 0.8131 1.1859 1.608-0.27023 1.0168 0.78774 1.9447 1.7063 1.2984 0.89322-0.5951 1.6724-1.4629 2.0128-2.4947 0.03042-0.6546 0.93734-1.203 1.234-0.454 0.58207 0.3011 1.0123 0.9312 1.174 1.5334 0.42578 0.4104 0.759 1.1254 0.12913 1.4706-0.33476 0.3332-1.1929 0.6208-1.3369 1.2926-0.09372 0.7496 0.23455 1.6407-0.43276 2.2209-0.72362 0.4669-0.71752 1.3935-1.0477 2.1042-0.05669 0.6961-0.38693 1.4041-1.072 1.6745-0.7339 0.323-1.5746 0.2754-2.3057 0.5733-0.40532 0.3816-1.5333 1.2963-1.6267 0.7794-0.04704 0.0009-0.15364 0.01-0.15223-0.044z"/>
<path fill="#828282" d="m46.377 997.81c-1.0339-0.3184-1.8639-1.0943-2.3631-2.04-0.499-0.70989-1.3273-1.1019-1.8502-1.7918-0.91859-0.42214-1.6268 0.61108-2.4103 0.91103-0.7713 0.81309-0.26955 2.101-0.95041 2.9712-0.44076 0.63317-1.1729 1.4482-0.69742 2.252 0.77009 0.5486 1.7923 0.6199 2.7127 0.6139 0.83673 0.2564 1.9288 0.4875 2.3811 1.3007 0.35217 0.897-0.51852 1.4854-1.0031 2.0904-0.55218 0.5803-1.3534 1.3044-0.57095 2.094 0.67834 0.6 1.2506 1.504 0.9389 2.4441-0.54893 0.6025-0.71766 2.062 0.47309 1.8702 0.95938 0.1291 1.3872-0.8679 1.8943-1.4741 0.65858-0.6659 0.7476-1.5993 0.69858-2.4828 0.1296-0.8547-0.46231-1.7655 0.01125-2.5633 0.56675-0.3462 1.3264-0.077 1.9767-0.1414 0.61537-0.048 1.3717 0.1542 1.8696-0.2547 0.58207-0.6444 0.95322-1.4662 1.2147-2.2849 0.25743-0.8544-0.44968-1.5099-1.0391-1.9996-0.48983-0.6139-1.2339-0.89612-1.7661-1.4524-0.46351-0.98831-0.98644-0.18475-1.5202-0.0625z"/>
<path fill="#828282" d="m52.5 1034c-0.65212 0.9037-1.861 1.3484-2.8366 0.7117-1.1239-0.1732-1.4222-1.5287-1.5305-2.1582-0.64888 1.1009-1.9281 1.4576-2.7967 2.2997-0.93623 0.4665-1.615 1.4946-2.6465 1.6731-0.97126-0.029-2.0019-0.4941-2.5316-1.3218-0.000633-1.2437 0.15426-2.4608-1.0286-3.1915-0.88856-0.5171-1.7404 0.1217-2.4852 0.4519-0.49332-0.9838-0.43212-2.3944 0.60844-2.9825 0.92415-0.6087 2.3079 0.2412 3.0961-0.7471 0.88773-0.9555 2.1393-0.8318 3.2799-0.4658 0.97268 0.6353 1.6768-0.02 2.0199-0.8977 0.53604-1.1049 0.83576-2.4454 1.3003-3.6352 0.13929-1.2146 0.72654-2.2105 1.2322-3.2874 0.48694-0.9003 0.87597-2.3405 2.2312-2.096 0.92889-0.1644 2.3846 0.4793 1.8298 1.5778-0.25794 1.0137-1.1576 2.0075-0.78483 3.0833 0.58946 1.4495 2.2413 0.8808 3.4463 0.9859 1.3654-0.0002 2.7307-0.0004 4.0961-0.0001 1.0357 0.3182 2.1339 0.8867 2.378 2.0531 0.30405 1.1591-1.6296 0.3076-2.2915 0.259-1.1186-0.4187-1.9553 0.4974-2.7068 1.1401-0.97511 0.3654-0.52778 1.766-0.16778 2.4385 0.51913 0.621 1.4589 2.1533 0.17915 2.4408-1.3667 0.2238 0.31578 2.3413-0.96594 2.1701-1.117 0.4131-1.9715-0.8133-2.9252-0.5016l-0.000003-0.0001z"/>
</g>
</svg>
