<?xml version="1.0" encoding="UTF-8" standalone="no"?>
<svg version="1.1" xmlns="http://www.w3.org/2000/svg" viewBox="0 0 84 84">
<g transform="translate(0 -968.36)">
<path stroke-linecap="round" stroke-width=".6" fill="#b4b4b4" d="m7.875 1018.2c1.1682-0.8966 3.8369-1.5465 3.901-3.8336 0.43114-1.6579 2.1957-2.8383 1.0844-4.6664 1.8137-1.3711 4.2922-2.2115 6.5618-1.6992 1.7974 1.357 2.9867-2.0319 1.9277-3.3059 1.4592-0.9041 3.0574-1.8587 3.7071-3.5781 1.4568-0.9913-0.14496-5.1388 2.2748-3.2663 2.0291 1.0676 3.7602-0.9861 5.7702-1.3441 0.97657-1.1136 2.8674-1.8821 1.9601-3.6486 0.63458-1.4895 2.1572-0.8866 3.0342-0.30338 2.0941-0.93204 0.75939-2.8082-0.36771-3.8288-0.31495-2.6672 3.0678-3.6398 3.6045-6.1248 0.0962-1.2776 0.21584-2.7395-0.16999-3.7961 1.803-0.31229 1.6925-4.0584 3.5868-1.9797 0.89066 2.0556 4.8076 1.3536 5.125-0.625l34.125 34.125-42 42z" stroke="#b4b4b4"/>
<path d="m7.875 1018.2c1.1682-0.8966 3.8369-1.5465 3.901-3.8336 0.43114-1.6579 2.1957-2.8383 1.0844-4.6664 1.8137-1.3711 4.2922-2.2115 6.5618-1.6992 1.7974 1.357 2.9867-2.0319 1.9277-3.3059 1.4592-0.9041 3.0574-1.8587 3.7071-3.5781 1.4568-0.9913-0.14496-5.1388 2.2748-3.2663 2.0291 1.0677 3.7602-0.98605 5.7702-1.344 0.97657-1.1136 2.8674-1.8821 1.9601-3.6487 0.63458-1.4895 2.1572-0.8866 3.0342-0.30338 2.0941-0.93204 0.75939-2.8082-0.36771-3.8288-0.31495-2.6672 3.0678-3.6398 3.6045-6.1248 0.0962-1.2776 0.21584-2.7395-0.16999-3.7961 1.803-0.31229 1.6925-4.0584 3.5868-1.9797 0.89066 2.0556 4.8076 1.3536 5.125-0.625" stroke-linecap="round" fill="none" stroke="#000" stroke-width=".8"/>
<path d="m21 1016.4c1.0336 0.2107 0.72354-1.413 1.9413-1.6084 1.2934-1.1597 4.7132-2.8799 5.4375-0.4908-0.28032 2.3691 4.7404-0.2034 4.0916 2.8699-2.3786 1.4818 0.0885 3.4226 0.17699 5.3161-0.64921 2.1569 1.6718 3.5526 1.3248 5.6357-0.47584 2.6257-4.5508 0.118-4.2056-1.8755-0.0879-1.7815-1.8397-2.9601-2.8496-1.051-1.4266 2.0948-3.9863 0.2342-4.8054-1.3967-2.0344-2.093 3.1645-2.7254 0.47696-4.4997-0.87179-0.7758-4.406 0.1972-2.5504-1.678 0.43085-0.3139 0.7109-0.7783 0.96183-1.2216z" fill="#828282"/>
<path d="m48 991.49c-0.0132-1.5665-0.25935-3.1112-0.94417-4.3995 1.2595-1.5674 4.2562-1.9474 4.2874 0.74716 0.19158 1.5726 1.9926 4.2664 3.5869 2.5407 2.2548-0.62096 3.3356 1.7899 3.3984 3.5835 0.28304 0.94082 2.6512 2.7818 0.2647 2.1789-1.3842-0.67909-4.474-1.9632-4.1049 0.8514 0.32565 2.4163 2.0292 4.5106 3.6822 6.2408 2.3569 0.7626 0.79318 3.3795-1.1704 3.2571-2.1673 0.3639-4.6247-0.3766-5.1771-2.7548-0.70096-1.8219-2.3826-4.1718-4.5477-3.6395-1.6412 1.0724-3.9547 1.3012-4.5109 3.4373-1.1084 2.0327-3.7078-0.6208-3.3444-2.2022 1.5659-1.3892 2.5449-3.2724 4.4192-4.3143 1.9702-1.5609 1.1153-3.8224 0.16092-5.5265 1.5426-0.75331 2.9714 0.85896 3.9882 1.1422 0.26585-0.32963 0.0516-0.77138 0.0118-1.1422z" fill="#828282"/>
<path d="m50.5 1029.9c-2.0395-1.4572-1.6942-3.9763-1.4794-6.0952-0.96106-1.4539-4.2619-2.8499-1.9385-4.8551 2.3668-1.7256 5.0821 0.6053 4.5279 3.2672 0.69433 1.9811 3.5782 1.8929 3.933 4.1558 1.1085 2.7811-2.3653 3.9418-4.4903 3.5449l-0.25083-0.033-0.30179 0.015z" fill="#828282"/>
</g>
</svg>
