<?xml version="1.0" encoding="UTF-8" standalone="no"?>
<svg xmlns="http://www.w3.org/2000/svg" viewBox="0 0 84 84" version="1.1">
<g transform="translate(0 -968.36)">
<g transform="translate(96)">
<path style="color:#000000" stroke-linejoin="round" d="m-41.598 65.658c-5.0414 2.95-9.935-10.869-14.628-10.956-1.8161-0.03366-3.5077 1.8759-5.3232 3.879-2.4487 2.7018-2.4978 6.4489-6.8818 5.4525-3.0855-0.70132-3.5196-6.2698-1.9255-10.276 1.3298-3.3418 2.9749-6.929 2.846-9.5655-0.30033-6.1448-14.844-8.0904-12.454-13.338 2.3078-5.0669 13.91 2.1821 18.433-1.0642 1.3043-0.9361 2.4294-3.6556 3.6059-6.4879 1.6381-3.9436-1.6241-8.2311 3.4614-9.3535 3.6641-0.80872 5.9581 7.2251 6.4877 12.312 0.30112 2.8922 0.82653 5.6003 2.4227 7.0159 2.3315 2.0677 6.346 0.78175 10.05 0.55905 3.9035-0.23468 8.6331 1.8635 7.5402 4.5512-0.99917 2.4572-3.1788 1.4162-6.1508 2.2625-3.6528 1.0402-7.0402 3.6406-8.35 6.46-1.3824 2.9757 5.7792 15.674 0.86601 18.549z" stroke-width=".8" transform="translate(0 968.36)" stroke="#000" fill="#d0d0d0" opacity=".5" stroke-linecap="round"/>
</g>
</g>
</svg>
