<?xml version="1.0" encoding="UTF-8" standalone="no"?>
<svg viewBox="0 0 84 84" xmlns="http://www.w3.org/2000/svg" version="1.1">
<defs>
<linearGradient id="a" x2="-49.765" x1="-54.505" y1="34.071" y2="59.196" gradientUnits="userSpaceOnUse">
<stop stop-color="#f0ed44" offset="0"/>
<stop stop-color="#aaa813" offset="1"/>
</linearGradient>
</defs>
<g transform="translate(0 -968.36)">
<g stroke-linecap="round" stroke-width=".8" transform="translate(96)">
<path style="color:#000000" stroke-linejoin="round" fill="url(#a)" stroke="#000" d="m-41.598 65.658c-5.0414 2.95-9.935-10.869-14.628-10.956-1.8161-0.03366-3.5077 1.8759-5.3232 3.879-2.4487 2.7018-2.4978 6.4489-6.8818 5.4525-3.0855-0.70132-3.5196-6.2698-1.9255-10.276 1.3298-3.3418 2.9749-6.929 2.846-9.5655-0.30033-6.1448-14.844-8.0904-12.454-13.338 2.3078-5.0669 13.91 2.1821 18.433-1.0642 1.3043-0.9361 2.4294-3.6556 3.6059-6.4879 1.6381-3.9436-1.6241-8.2311 3.4614-9.3535 3.6641-0.80872 5.9581 7.2251 6.4877 12.312 0.30112 2.8922 0.82653 5.6003 2.4227 7.0159 2.3315 2.0677 6.346 0.78175 10.05 0.55905 3.9035-0.23468 8.6331 1.8635 7.5402 4.5512-0.99917 2.4572-3.1788 1.4162-6.1508 2.2625-3.6528 1.0402-7.0402 3.6406-8.35 6.46-1.3824 2.9757 5.7792 15.674 0.86601 18.549z" transform="translate(0 968.36)"/>
<path fill="none" stroke="#323232" d="m-54 18.375c1.625 6.375-0.25 14.125-0.25 14.125" opacity=".80088" transform="translate(0 968.36)"/>
<path fill="none" stroke="#323232" d="m-75.875 32.75s12 4.875 14.5 5.25" opacity=".80088" transform="translate(0 968.36)"/>
<path fill="none" stroke="#323232" d="m-67.375 60.25c0-7.625 7.875-13.625 7.875-13.625" opacity=".80088" transform="translate(0 968.36)"/>
<path fill="none" stroke="#323232" d="m-44 61.625c-0.5-4.25-6.125-13.875-6.125-13.875" opacity=".80088" transform="translate(0 968.36)"/>
<path fill="none" stroke="#323232" d="m-32.625 37.25c-7-0.5-15.75 2.75-15.75 2.75" opacity=".80088" transform="translate(0 968.36)"/>
</g>
</g>
</svg>
