<?xml version="1.0" encoding="UTF-8" standalone="no"?>
<svg viewBox="0 0 84 84" version="1.1" xmlns="http://www.w3.org/2000/svg">
<g transform="translate(0 -968.36)">
<g transform="translate(-63,-63)" stroke="#000">
<path d="m92.426 1067.7c-0.05236 2.0947 3.4996 7.7107 3.4996 7.7107s-0.17403 5.7691 0.49484 7.6581 11.675 1.7389 14.13 3.5084c2.4546 1.7695 9.1838 5.3093 10.712 4.7433 1.5284-0.566 6.0655-11.089 6.8387-12.48 0.77321-1.3905 5.8944-12.6 5.4829-14.043-0.4115-1.4425-9.5091-7.8162-11.483-8.8129-1.9742-0.9967-13.252-6.2694-15.762-4.0297-2.3332 2.0826-1.8211 5.276-3.6076 7.2155s-9.7211 6.9328-10.305 8.5294z" fill="#a9a6bd" stroke-width=".8"/>
<path d="m97.811 1073.5s-1.5348 0.2629-2.2969 0.4226c-7.3473 3.7491-6.3246 1.247-10.435 5.8528-2.8598 5.2215-0.21433 6.647 2.4969 10.683 2.7112 4.0361 7.7093 0.1405 11.211 2.3912 3.5018 2.2507 3.8532 3.7103 5.6293 6.0633-0.8831-2.8678-2.599-6.2647-6.0665-7.8234-5.0983-2.2918-5.28 0.4013-8.4728-1.6775-2.4544-1.5981-3.6787-4.6739-3.7348-7.0645 1.4561-3.9209 5.8028-4.0832 7.9987-5.624 1.2491-0.074 4.1694-1.1665 4.1694-1.1665" fill="#a9a6bd" stroke-linecap="round" stroke-width=".8"/>
<path d="m106.94 1058.9c1.3576-2.987-0.21565-4.8844 1.3127-5.4504s7.5142 1.7624 7.5142 1.7624" fill="none" stroke-width=".8" stroke-linecap="round"/>
<path d="m114.6 1084.8c2.5748 1.7353 3.8252 2.095 5.1474 1.7178s3.1579-4.8227 3.1579-4.8227" fill="none" stroke-width=".8" stroke-linecap="round"/>
<path d="m95.756 1070.2c8.0891-4.9074 9.9218-5.9922 14.565-6.4661" stroke-opacity=".59043" fill="none" stroke-width=".8" stroke-linecap="round"/>
<path d="m98.585 1079.7c5.3056-0.084 10.073 0.5706 15.8-1.5687" stroke-opacity=".59043" fill="none" stroke-width=".8" stroke-linecap="round"/>
<path d="m124.81 96.312-5.125-3.375" fill="none" stroke-width="1px" transform="translate(0 968.36)" stroke-linecap="round"/>
<path d="m123.69 91.812-2.57 5.188" fill="none" stroke-width="1px" transform="translate(0 968.36)" stroke-linecap="round"/>
<path d="m127.62 105.44-5.18-2.94" fill="none" stroke-width="1px" transform="translate(0 968.36)" stroke-linecap="round"/>
<path d="m125.56 101.19-1.75 5.6875" fill="none" stroke-width="1px" transform="translate(0 968.36)" stroke-linecap="round"/>
</g>
</g>
</svg>
